<?xml version="1.0" encoding="UTF-8"?>
<svg xmlns="http://www.w3.org/2000/svg" viewBox="0 0 1000 1000" width="1000" height="1000">
  <style>text { user-select: none; }</style>
  <rect x="0" y="0" width="1000" height="1000" fill="#ffffff"/>
  <circle cx="500" cy="500" r="386.4" fill="none" stroke="#999" stroke-width="0.5"/>
  <circle cx="500" cy="500" r="358.8" fill="none" stroke="#999" stroke-width="0.5"/>
  <circle cx="500" cy="500" r="220.79999999999998" fill="none" stroke="#999" stroke-width="0.5"/>
  <circle cx="500" cy="500" r="299" fill="none" stroke="#999" stroke-width="0.5" stroke-dasharray="2,3"/>
  <line x1="113.90324550539549" y1="484.69457061258686" x2="201.23465426012746" y2="488.15651297402553" stroke="#000" stroke-width="0.5"/>
  <line x1="157.97768759524234" y1="679.7934865819736" x2="235.33987730584226" y2="639.125912236051" stroke="#000" stroke-width="0.5"/>
  <line x1="293.69673208736907" y1="826.7168830173446" x2="340.3605664961784" y2="752.8166356681834" stroke="#000" stroke-width="0.5"/>
  <line x1="484.694570612587" y1="886.0967544946045" x2="488.15651297402565" y2="798.7653457398726" stroke="#000" stroke-width="0.5"/>
  <line x1="679.7934865819736" y1="842.0223124047577" x2="639.125912236051" y2="764.6601226941577" stroke="#000" stroke-width="0.5"/>
  <line x1="826.7168830173446" y1="706.3032679126309" x2="752.8166356681834" y2="659.6394335038215" stroke="#000" stroke-width="0.5"/>
  <line x1="886.0967544946045" y1="515.305429387413" x2="798.7653457398726" y2="511.8434870259744" stroke="#000" stroke-width="0.5"/>
  <line x1="842.0223124047577" y1="320.2065134180263" x2="764.6601226941577" y2="360.8740877639489" stroke="#000" stroke-width="0.5"/>
  <line x1="706.303267912631" y1="173.28311698265554" x2="659.6394335038217" y2="247.18336433181676" stroke="#000" stroke-width="0.5"/>
  <line x1="515.3054293874131" y1="113.90324550539549" x2="511.84348702597447" y2="201.23465426012746" stroke="#000" stroke-width="0.5"/>
  <line x1="320.20651341802636" y1="157.97768759524234" x2="360.874087763949" y2="235.33987730584226" stroke="#000" stroke-width="0.5"/>
  <line x1="173.28311698265532" y1="293.69673208736924" x2="247.1833643318166" y2="340.36056649617854" stroke="#000" stroke-width="0.5"/>
  <line x1="886.0967544946045" y1="515.3054293874133" x2="877.8232526125773" y2="514.9774559005401" stroke="#000" stroke-width="0.5"/>
  <line x1="886.3050666631596" y1="508.56478081282813" x2="884.4655187266684" y2="508.52399614229086" stroke="#000" stroke-width="0.5"/>
  <line x1="886.395706566188" y1="501.82152332303855" x2="884.5557270111109" y2="501.8128494024526" stroke="#000" stroke-width="0.5"/>
  <line x1="886.368646593897" y1="495.0777109795993" x2="884.5287958958307" y2="495.101150451125" stroke="#000" stroke-width="0.5"/>
  <line x1="886.2238949890163" y1="488.33539801307865" x2="884.3847335843068" y2="488.39094373682593" stroke="#000" stroke-width="0.5"/>
  <line x1="885.9614958442871" y1="481.5966381973211" x2="880.4477601893689" y2="481.8595433659308" stroke="#000" stroke-width="0.5"/>
  <line x1="885.5815290890308" y1="474.86348422384566" x2="883.7454265695593" y2="474.9831819180178" stroke="#000" stroke-width="0.5"/>
  <line x1="885.0841104648018" y1="468.1379870765792" x2="883.2503766054457" y2="468.28971094764313" stroke="#000" stroke-width="0.5"/>
  <line x1="884.4693914901318" y1="461.4221954071028" x2="882.6385848639883" y2="461.60589923849756" stroke="#000" stroke-width="0.5"/>
  <line x1="883.7375594143753" y1="454.71815491061767" x2="881.9102377028782" y2="454.93378274437663" stroke="#000" stroke-width="0.5"/>
  <line x1="882.8888371606718" y1="448.02790770280114" x2="874.6840763643717" y2="449.14159539488395" stroke="#000" stroke-width="0.5"/>
  <line x1="881.9234832580418" y1="441.3534916977637" x2="880.104800004432" y2="441.63276078491714" stroke="#000" stroke-width="0.5"/>
  <line x1="880.8417917626355" y1="434.69693998727615" x2="879.0282594209086" y2="435.0079069397177" stroke="#000" stroke-width="0.5"/>
  <line x1="879.644092168161" y1="428.0602802214738" x2="877.8362631578365" y2="428.4028503156573" stroke="#000" stroke-width="0.5"/>
  <line x1="878.3307493055172" y1="421.4455339912118" x2="876.5291743088244" y2="421.8196028769679" stroke="#000" stroke-width="0.5"/>
  <line x1="876.9021632316626" y1="414.85471621226986" x2="871.5178466140675" y2="416.07107740923743" stroke="#000" stroke-width="0.5"/>
  <line x1="875.3587691077546" y1="408.28983451159127" x2="873.5713463977177" y2="408.72654958534554" stroke="#000" stroke-width="0.5"/>
  <line x1="873.7010370665942" y1="401.752888615736" x2="871.921508318658" y2="402.22073200328015" stroke="#000" stroke-width="0.5"/>
  <line x1="871.9294720694202" y1="395.2458697417499" x2="870.1583793452801" y2="395.7446989334559" stroke="#000" stroke-width="0.5"/>
  <line x1="870.044613752092" y1="388.77075999061657" x2="868.2824965437487" y2="389.30042303828026" stroke="#000" stroke-width="0.5"/>
  <line x1="868.0470362607123" y1="382.3295317434919" x2="860.1603140551256" y2="384.8510417775599" stroke="#000" stroke-width="0.5"/>
  <line x1="865.9373480767358" y1="375.9241470608972" x2="864.1947892763704" y2="376.51498445584537" stroke="#000" stroke-width="0.5"/>
  <line x1="863.7161918316207" y1="369.5565570850582" x2="861.9842099657558" y2="370.17771633703416" stroke="#000" stroke-width="0.5"/>
  <line x1="861.3842441110755" y1="363.2287014455645" x2="859.6633667581657" y2="363.87999334344283" stroke="#000" stroke-width="0.5"/>
  <line x1="858.9422152489665" y1="356.94250766854384" x2="857.2329666049238" y2="357.62373382250314" stroke="#000" stroke-width="0.5"/>
  <line x1="856.3908491109414" y1="350.69989058951694" x2="851.2995512664993" y2="352.83274929538095" stroke="#000" stroke-width="0.5"/>
  <line x1="853.7309228678412" y1="344.5027517701185" x2="852.0464899018039" y2="345.24321485692747" stroke="#000" stroke-width="0.5"/>
  <line x1="850.9632467589672" y1="338.3529789188668" x2="849.2919932029721" y2="339.12272663830083" stroke="#000" stroke-width="0.5"/>
  <line x1="848.0886638452731" y1="332.2524453161464" x2="846.4310987793433" y2="333.0512431955933" stroke="#000" stroke-width="0.5"/>
  <line x1="845.1080497525611" y1="326.2030092435897" x2="843.4646780870728" y2="327.03061396147734" stroke="#000" stroke-width="0.5"/>
  <line x1="842.0223124047577" y1="320.2065134180263" x2="834.6932628532272" y2="324.05923098764003" stroke="#000" stroke-width="0.5"/>
  <line x1="838.8323917473515" y1="314.26478443017504" x2="837.2189041676022" y2="315.1492378376504" stroke="#000" stroke-width="0.5"/>
  <line x1="835.5392594610755" y1="308.37963218824314" x2="833.9414534636419" y2="309.2921101302039" stroke="#000" stroke-width="0.5"/>
  <line x1="832.1439186659263" y1="302.55284936661525" x2="830.5622809579934" y2="303.49307389344085" stroke="#000" stroke-width="0.5"/>
  <line x1="828.647403615601" y1="296.78621085978375" x2="827.0824159793362" y2="297.75389556997527" stroke="#000" stroke-width="0.5"/>
  <line x1="825.0507793824552" y1="291.0814732417002" x2="820.4071968198487" y2="294.06602362396166" stroke="#000" stroke-width="0.5"/>
  <line x1="821.3551415330721" y1="285.4403742307068" x2="819.8248789543433" y2="286.46208673437013" stroke="#000" stroke-width="0.5"/>
  <line x1="817.561615794541" y1="279.86463216020843" x2="816.0494176240909" y2="280.9128958165884" stroke="#000" stroke-width="0.5"/>
  <line x1="813.6713577115504" y1="274.35594545525333" x2="812.1776845795906" y2="275.43044095308545" stroke="#000" stroke-width="0.5"/>
  <line x1="809.6855522943981" y1="268.9159921151755" x2="808.2108591882343" y2="270.01639215272235" stroke="#000" stroke-width="0.5"/>
  <line x1="805.6054136580254" y1="263.5464292024603" x2="799.0567262224963" y2="268.61329143383614" stroke="#000" stroke-width="0.5"/>
  <line x1="801.4321846521866" y1="258.2488923379874" x2="799.9967932967002" y2="259.4000880887588" stroke="#000" stroke-width="0.5"/>
  <line x1="797.1671364828637" y1="253.02499520280386" x2="795.7520548805644" y2="254.2010666542191" stroke="#000" stroke-width="0.5"/>
  <line x1="792.8115683250451" y1="247.87632904658196" x2="791.4172275234973" y2="249.0769179558839" stroke="#000" stroke-width="0.5"/>
  <line x1="788.3668069269856" y1="242.80446220290952" x2="786.9936316559048" y2="244.02920285908613" stroke="#000" stroke-width="0.5"/>
  <line x1="783.8342062060641" y1="237.8109396115592" x2="779.7794318316918" y2="241.5564976171084" stroke="#000" stroke-width="0.5"/>
  <line x1="779.2151468363686" y1="232.89728234788566" x2="777.8855508990525" y2="234.16920005099098" stroke="#000" stroke-width="0.5"/>
  <line x1="774.5110358281289" y1="228.06498715949112" x2="773.2038404194236" y2="229.35991579206495" stroke="#000" stroke-width="0.5"/>
  <line x1="769.7233060991277" y1="223.31552601030137" x2="768.4389094034177" y2="224.63307112453805" stroke="#000" stroke-width="0.5"/>
  <line x1="764.8534160382205" y1="218.65034563219166" x2="763.5922092951814" y2="219.99010589108593" stroke="#000" stroke-width="0.5"/>
  <line x1="759.9028490610951" y1="214.07086708429733" x2="754.3335022955002" y2="220.19791993249095" stroke="#000" stroke-width="0.5"/>
  <line x1="754.8731131584107" y1="209.57848532014714" x2="753.6594316671801" y2="210.9614449138607" stroke="#000" stroke-width="0.5"/>
  <line x1="749.7657404364464" y1="205.17456876274457" x2="748.5763797677015" y2="206.57849938768385" stroke="#000" stroke-width="0.5"/>
  <line x1="744.5822866504105" y1="200.86045888773515" x2="743.4176090949325" y2="202.28493289303162" stroke="#000" stroke-width="0.5"/>
  <line x1="739.3243307305391" y1="196.6374698147784" x2="738.1846910603937" y2="198.08205329185085" stroke="#000" stroke-width="0.5"/>
  <line x1="733.9934743011403" y1="192.5068879072548" x2="730.6507103825526" y2="196.89964665143685" stroke="#000" stroke-width="0.5"/>
  <line x1="728.5913411927237" y1="188.46997138042735" x2="727.5028109965679" y2="189.9534477071872" stroke="#000" stroke-width="0.5"/>
  <line x1="723.1195769473658" y1="184.5279499181766" x2="722.0571027714259" y2="186.03019777570904" stroke="#000" stroke-width="0.5"/>
  <line x1="717.5798483174615" y1="180.68202429842688" x2="716.543753801664" y2="182.20258608748196" stroke="#000" stroke-width="0.5"/>
  <line x1="711.9738427580166" y1="176.93336602737878" x2="710.964443506788" y2="178.47177857010553" stroke="#000" stroke-width="0.5"/>
  <line x1="706.303267912631" y1="173.28311698265554" x2="701.8824836002175" y2="180.2841930473129" stroke="#000" stroke-width="0.5"/>
  <line x1="700.5698510933343" y1="169.73238906547664" x2="699.6147565643184" y2="171.30509197468865" stroke="#000" stroke-width="0.5"/>
  <line x1="694.775338754431" y1="166.2822638619628" x2="693.8478371413147" y2="167.87139593881056" stroke="#000" stroke-width="0.5"/>
  <line x1="688.9214959605121" y1="162.93379231367288" x2="688.0218697892716" y2="164.53886949313159" stroke="#000" stroke-width="0.5"/>
  <line x1="683.0101058488" y1="159.6879943974779" x2="682.1386291542818" y2="161.3085277574899" stroke="#000" stroke-width="0.5"/>
  <line x1="677.0429690859876" y1="156.54585881486588" x2="674.5137838133306" y2="161.45234654608208" stroke="#000" stroke-width="0.5"/>
  <line x1="671.0219033197376" y1="153.5083426907737" x2="670.2075133039293" y2="155.1583029636747" stroke="#000" stroke-width="0.5"/>
  <line x1="664.9487426250103" y1="150.5763712820381" x2="664.163272422034" y2="152.24029332355218" stroke="#000" stroke-width="0.5"/>
  <line x1="658.8253369453851" y1="147.75083769555266" x2="658.0690258170737" y2="149.42821465890717" stroke="#000" stroke-width="0.5"/>
  <line x1="652.6535515295507" y1="145.03260261621944" x2="651.9266298556004" y2="146.72292355614218" stroke="#000" stroke-width="0.5"/>
  <line x1="646.4352663631323" y1="142.42249404477565" x2="643.297367798208" y2="150.08486917238758" stroke="#000" stroke-width="0.5"/>
  <line x1="640.1723755960294" y1="139.92130704557695" x2="639.5048880931911" y2="141.63596748821703" stroke="#000" stroke-width="0.5"/>
  <line x1="633.8667869654392" y1="137.5298035044127" x2="633.2293260751277" y2="139.25585205915354" stroke="#000" stroke-width="0.5"/>
  <line x1="627.5204212147431" y1="135.24871189642874" x2="626.9131811137206" y2="136.98562279215997" stroke="#000" stroke-width="0.5"/>
  <line x1="621.1352115084269" y1="133.07872706422614" x2="620.5583771679106" y2="134.82597122106318" stroke="#000" stroke-width="0.5"/>
  <line x1="614.7131028432218" y1="131.02051000620588" x2="613.0743442311758" y2="136.2916455775458" stroke="#000" stroke-width="0.5"/>
  <line x1="608.2560514556402" y1="129.0746876752225" x2="607.7405464487086" y2="130.84099868629283" stroke="#000" stroke-width="0.5"/>
  <line x1="601.7660242260853" y1="127.24185278760734" x2="601.281424110723" y2="129.01689158385682" stroke="#000" stroke-width="0.5"/>
  <line x1="595.2449980797215" y1="125.52256364262234" x2="594.7914504698181" y2="127.3057895300384" stroke="#000" stroke-width="0.5"/>
  <line x1="588.6949593842836" y1="123.91734395239621" x2="588.2726024348347" y2="125.70821374309907" stroke="#000" stroke-width="0.5"/>
  <line x1="582.1179033450098" y1="122.42668268239663" x2="580.3582339876168" y2="130.51753948205953" stroke="#000" stroke-width="0.5"/>
  <line x1="575.515833396883" y1="121.05103390248678" x2="575.1562341902311" y2="122.85555278866542" stroke="#000" stroke-width="0.5"/>
  <line x1="568.8907605943654" y1="119.79081664861144" x2="568.5627093534398" y2="121.60133656933232" stroke="#000" stroke-width="0.5"/>
  <line x1="562.2447029988106" y1="118.64641479515387" x2="561.9482996511972" y2="120.46238424851026" stroke="#000" stroke-width="0.5"/>
  <line x1="555.5796850637448" y1="117.61817693800492" x2="555.3150198967745" y2="119.43904276210964" stroke="#000" stroke-width="0.5"/>
  <line x1="548.897737018196" y1="116.70641628837649" x2="548.1991979179361" y2="122.18203891282826" stroke="#000" stroke-width="0.5"/>
  <line x1="542.2008942482685" y1="115.91141057739503" x2="541.999937608991" y2="117.74040386035978" stroke="#000" stroke-width="0.5"/>
  <line x1="535.4911966771438" y1="115.23340197150134" x2="535.3221909786812" y2="117.06562386687511" stroke="#000" stroke-width="0.5"/>
  <line x1="528.7706881437001" y1="114.67259699868487" x2="528.6336848668254" y2="116.50748939392918" stroke="#000" stroke-width="0.5"/>
  <line x1="522.0414157799397" y1="114.22916648557293" x2="521.9364566571782" y2="116.0661704546892" stroke="#000" stroke-width="0.5"/>
  <line x1="515.3054293874131" y1="113.90324550539549" x2="514.97745590054" y2="122.17674738742272" stroke="#000" stroke-width="0.5"/>
  <line x1="508.5647808128281" y1="113.69493333684039" x2="508.5239961422908" y2="115.53448127333161" stroke="#000" stroke-width="0.5"/>
  <line x1="501.82152332303855" y1="113.60429343381207" x2="501.8128494024527" y2="115.44427298888911" stroke="#000" stroke-width="0.5"/>
  <line x1="495.07771097959903" y1="113.63135340610307" x2="495.10115045112474" y2="115.47120410416926" stroke="#000" stroke-width="0.5"/>
  <line x1="488.3353980130787" y1="113.77610501098366" x2="488.39094373682593" y2="115.61526641569327" stroke="#000" stroke-width="0.5"/>
  <line x1="481.5966381973211" y1="114.03850415571287" x2="481.8595433659308" y2="119.55223981063119" stroke="#000" stroke-width="0.5"/>
  <line x1="474.863484223846" y1="114.41847091096918" x2="474.9831819180182" y2="116.2545734304407" stroke="#000" stroke-width="0.5"/>
  <line x1="468.13798707657924" y1="114.91588953519812" x2="468.28971094764313" y2="116.7496233945543" stroke="#000" stroke-width="0.5"/>
  <line x1="461.42219540710283" y1="115.53060850986822" x2="461.60589923849756" y2="117.36141513601171" stroke="#000" stroke-width="0.5"/>
  <line x1="454.71815491061733" y1="116.2624405856248" x2="454.9337827443763" y2="118.08976229712181" stroke="#000" stroke-width="0.5"/>
  <line x1="448.02790770280114" y1="117.11116283932824" x2="449.141595394884" y2="125.31592363562834" stroke="#000" stroke-width="0.5"/>
  <line x1="441.3534916977637" y1="118.07651674195824" x2="441.6327607849172" y2="119.8951999955679" stroke="#000" stroke-width="0.5"/>
  <line x1="434.69693998727655" y1="119.15820823736448" x2="435.00790693971805" y2="120.97174057909132" stroke="#000" stroke-width="0.5"/>
  <line x1="428.0602802214742" y1="120.35590783183898" x2="428.40285031565764" y2="122.16373684216347" stroke="#000" stroke-width="0.5"/>
  <line x1="421.4455339912118" y1="121.66925069448274" x2="421.8196028769679" y2="123.47082569117566" stroke="#000" stroke-width="0.5"/>
  <line x1="414.8547162122702" y1="123.09783676833723" x2="416.0710774092378" y2="128.4821533859324" stroke="#000" stroke-width="0.5"/>
  <line x1="408.2898345115909" y1="124.64123089224546" x2="408.72654958534525" y2="126.42865360228234" stroke="#000" stroke-width="0.5"/>
  <line x1="401.7528886157361" y1="126.29896293340579" x2="402.22073200328015" y2="128.07849168134197" stroke="#000" stroke-width="0.5"/>
  <line x1="395.24586974174963" y1="128.07052793057994" x2="395.7446989334556" y2="129.84162065472003" stroke="#000" stroke-width="0.5"/>
  <line x1="388.7707599906163" y1="129.9553862479081" x2="389.30042303828" y2="131.7175034562514" stroke="#000" stroke-width="0.5"/>
  <line x1="382.3295317434916" y1="131.95296373928778" x2="384.8510417775596" y2="139.83968594487442" stroke="#000" stroke-width="0.5"/>
  <line x1="375.92414706089727" y1="134.06265192326413" x2="376.51498445584537" y2="135.8052107236295" stroke="#000" stroke-width="0.5"/>
  <line x1="369.556557085058" y1="136.28380816837938" x2="370.17771633703387" y2="138.01579003424422" stroke="#000" stroke-width="0.5"/>
  <line x1="363.2287014455645" y1="138.6157558889244" x2="363.87999334344283" y2="140.3366332418343" stroke="#000" stroke-width="0.5"/>
  <line x1="356.94250766854384" y1="141.05778475103358" x2="357.62373382250314" y2="142.76703339507623" stroke="#000" stroke-width="0.5"/>
  <line x1="350.69989058951666" y1="143.60915088905875" x2="352.8327492953807" y2="148.70044873350076" stroke="#000" stroke-width="0.5"/>
  <line x1="344.5027517701185" y1="146.26907713215883" x2="345.24321485692747" y2="147.95351009819615" stroke="#000" stroke-width="0.5"/>
  <line x1="338.3529789188666" y1="149.03675324103295" x2="339.12272663830055" y2="150.70800679702802" stroke="#000" stroke-width="0.5"/>
  <line x1="332.2524453161461" y1="151.91133615472705" x2="333.05124319559303" y2="153.56890122065687" stroke="#000" stroke-width="0.5"/>
  <line x1="326.2030092435894" y1="154.891950247439" x2="327.03061396147706" y2="156.53532191292737" stroke="#000" stroke-width="0.5"/>
  <line x1="320.20651341802636" y1="157.97768759524234" x2="324.05923098764003" y2="165.30673714677283" stroke="#000" stroke-width="0.5"/>
  <line x1="314.26478443017476" y1="161.16760825264873" x2="315.1492378376501" y2="162.78109583239797" stroke="#000" stroke-width="0.5"/>
  <line x1="308.3796321882429" y1="164.4607405389246" x2="309.29211013020364" y2="166.05854653635828" stroke="#000" stroke-width="0.5"/>
  <line x1="302.55284936661496" y1="167.8560813340739" x2="303.4930738934406" y2="169.43771904200685" stroke="#000" stroke-width="0.5"/>
  <line x1="296.7862108597834" y1="171.35259638439925" x2="297.75389556997493" y2="172.91758402066398" stroke="#000" stroke-width="0.5"/>
  <line x1="291.0814732417002" y1="174.94922061754477" x2="294.06602362396166" y2="179.5928031801513" stroke="#000" stroke-width="0.5"/>
  <line x1="285.4403742307068" y1="178.64485846692781" x2="286.46208673437013" y2="180.17512104565674" stroke="#000" stroke-width="0.5"/>
  <line x1="279.8646321602082" y1="182.43838420545922" x2="280.91289581658816" y2="183.9505823759094" stroke="#000" stroke-width="0.5"/>
  <line x1="274.35594545525305" y1="186.32864228844983" x2="275.43044095308517" y2="187.82231542040955" stroke="#000" stroke-width="0.5"/>
  <line x1="268.9159921151753" y1="190.3144477056021" x2="270.01639215272206" y2="191.7891408117659" stroke="#000" stroke-width="0.5"/>
  <line x1="263.54642920246033" y1="194.39458634197456" x2="268.61329143383614" y2="200.94327377750363" stroke="#000" stroke-width="0.5"/>
  <line x1="258.2488923379871" y1="198.5678153478135" x2="259.4000880887586" y2="200.00320670330012" stroke="#000" stroke-width="0.5"/>
  <line x1="253.0249952028036" y1="202.8328635171365" x2="254.20106665421883" y2="204.24794511943583" stroke="#000" stroke-width="0.5"/>
  <line x1="247.87632904658196" y1="207.18843167495487" x2="249.0769179558839" y2="208.58277247650267" stroke="#000" stroke-width="0.5"/>
  <line x1="242.80446220290958" y1="211.63319307301435" x2="244.02920285908618" y2="213.00636834409522" stroke="#000" stroke-width="0.5"/>
  <line x1="237.8109396115592" y1="216.16579379393585" x2="241.5564976171084" y2="220.22056816830815" stroke="#000" stroke-width="0.5"/>
  <line x1="232.8972823478856" y1="220.78485316363145" x2="234.16920005099087" y2="222.11444910094747" stroke="#000" stroke-width="0.5"/>
  <line x1="228.064987159491" y1="225.4889641718712" x2="229.35991579206484" y2="226.79615958057656" stroke="#000" stroke-width="0.5"/>
  <line x1="223.31552601030103" y1="230.27669390087254" x2="224.6330711245377" y2="231.56109059658263" stroke="#000" stroke-width="0.5"/>
  <line x1="218.65034563219132" y1="235.14658396177975" x2="219.9901058910856" y2="236.40779070481892" stroke="#000" stroke-width="0.5"/>
  <line x1="214.07086708429722" y1="240.09715093890492" x2="220.19791993249083" y2="245.6664977044998" stroke="#000" stroke-width="0.5"/>
  <line x1="209.5784853201469" y1="245.1268868415896" x2="210.96144491386048" y2="246.3405683328201" stroke="#000" stroke-width="0.5"/>
  <line x1="205.17456876274457" y1="250.2342595635535" x2="206.5784993876839" y2="251.42362023229848" stroke="#000" stroke-width="0.5"/>
  <line x1="200.8604588877352" y1="255.41771334958943" x2="202.28493289303168" y2="256.58239090506754" stroke="#000" stroke-width="0.5"/>
  <line x1="196.63746981477829" y1="260.67566926946097" x2="198.08205329185074" y2="261.81530893960644" stroke="#000" stroke-width="0.5"/>
  <line x1="192.50688790725468" y1="266.0065256988598" x2="196.89964665143674" y2="269.3492896174475" stroke="#000" stroke-width="0.5"/>
  <line x1="188.46997138042724" y1="271.4086588072764" x2="189.95344770718708" y2="272.49718900343225" stroke="#000" stroke-width="0.5"/>
  <line x1="184.52794991817638" y1="276.8804230526345" x2="186.0301977757088" y2="277.94289722857434" stroke="#000" stroke-width="0.5"/>
  <line x1="180.68202429842688" y1="282.4201516825385" x2="182.20258608748196" y2="283.4562461983359" stroke="#000" stroke-width="0.5"/>
  <line x1="176.9333660273786" y1="288.0261572419836" x2="178.47177857010536" y2="289.03555649321225" stroke="#000" stroke-width="0.5"/>
  <line x1="173.28311698265532" y1="293.69673208736924" x2="180.28419304731267" y2="298.11751639978274" stroke="#000" stroke-width="0.5"/>
  <line x1="169.73238906547664" y1="299.4301489066657" x2="171.30509197468865" y2="300.38524343568156" stroke="#000" stroke-width="0.5"/>
  <line x1="166.2822638619627" y1="305.2246612455691" x2="167.8713959388105" y2="306.1521628586854" stroke="#000" stroke-width="0.5"/>
  <line x1="162.93379231367283" y1="311.07850403948805" x2="164.53886949313147" y2="311.9781302107286" stroke="#000" stroke-width="0.5"/>
  <line x1="159.68799439747784" y1="316.9898941512002" x2="161.30852775748986" y2="317.8613708457183" stroke="#000" stroke-width="0.5"/>
  <line x1="156.5458588148657" y1="322.9570309140127" x2="161.4523465460819" y2="325.48621618666965" stroke="#000" stroke-width="0.5"/>
  <line x1="153.5083426907737" y1="328.9780966802624" x2="155.1583029636747" y2="329.7924866960707" stroke="#000" stroke-width="0.5"/>
  <line x1="150.5763712820381" y1="335.05125737498975" x2="152.24029332355218" y2="335.8367275779659" stroke="#000" stroke-width="0.5"/>
  <line x1="147.75083769555266" y1="341.17466305461494" x2="149.42821465890717" y2="341.93097418292626" stroke="#000" stroke-width="0.5"/>
  <line x1="145.03260261621932" y1="347.3464484704496" x2="146.72292355614206" y2="348.07337014439986" stroke="#000" stroke-width="0.5"/>
  <line x1="142.42249404477548" y1="353.5647336368682" x2="150.0848691723874" y2="356.7026322017924" stroke="#000" stroke-width="0.5"/>
  <line x1="139.92130704557678" y1="359.82762440397113" x2="141.63596748821686" y2="360.49511190680937" stroke="#000" stroke-width="0.5"/>
  <line x1="137.5298035044126" y1="366.13321303456087" x2="139.25585205915348" y2="366.7706739248725" stroke="#000" stroke-width="0.5"/>
  <line x1="135.24871189642863" y1="372.479578785257" x2="136.98562279215992" y2="373.08681888627956" stroke="#000" stroke-width="0.5"/>
  <line x1="133.07872706422603" y1="378.86478849157334" x2="134.825971221063" y2="379.44162283208965" stroke="#000" stroke-width="0.5"/>
  <line x1="131.02051000620594" y1="385.28689715677814" x2="136.2916455775458" y2="386.9256557688242" stroke="#000" stroke-width="0.5"/>
  <line x1="129.0746876752225" y1="391.74394854435974" x2="130.84099868629283" y2="392.25945355129136" stroke="#000" stroke-width="0.5"/>
  <line x1="127.24185278760729" y1="398.23397577391484" x2="129.01689158385676" y2="398.71857588927713" stroke="#000" stroke-width="0.5"/>
  <line x1="125.52256364262234" y1="404.75500192027863" x2="127.3057895300384" y2="405.20854953018204" stroke="#000" stroke-width="0.5"/>
  <line x1="123.91734395239615" y1="411.30504061571656" x2="125.70821374309901" y2="411.7273975651655" stroke="#000" stroke-width="0.5"/>
  <line x1="122.42668268239652" y1="417.8820966549906" x2="130.51753948205942" y2="419.64176601238364" stroke="#000" stroke-width="0.5"/>
  <line x1="121.05103390248678" y1="424.4841666031172" x2="122.85555278866542" y2="424.843765809769" stroke="#000" stroke-width="0.5"/>
  <line x1="119.79081664861138" y1="431.109239405635" x2="121.60133656933226" y2="431.43729064656054" stroke="#000" stroke-width="0.5"/>
  <line x1="118.64641479515387" y1="437.7552970011894" x2="120.46238424851026" y2="438.05170034880274" stroke="#000" stroke-width="0.5"/>
  <line x1="117.61817693800492" y1="444.42031493625524" x2="119.43904276210964" y2="444.6849801032254" stroke="#000" stroke-width="0.5"/>
  <line x1="116.70641628837649" y1="451.10226298180413" x2="122.18203891282826" y2="451.8008020820641" stroke="#000" stroke-width="0.5"/>
  <line x1="115.91141057739497" y1="457.79910575173164" x2="117.74040386035972" y2="458.0000623910091" stroke="#000" stroke-width="0.5"/>
  <line x1="115.23340197150134" y1="464.5088033228564" x2="117.06562386687511" y2="464.67780902131904" stroke="#000" stroke-width="0.5"/>
  <line x1="114.67259699868481" y1="471.22931185630017" x2="116.50748939392912" y2="471.3663151331749" stroke="#000" stroke-width="0.5"/>
  <line x1="114.22916648557293" y1="477.95858422006023" x2="116.0661704546892" y2="478.06354334282184" stroke="#000" stroke-width="0.5"/>
  <line x1="113.90324550539549" y1="484.69457061258686" x2="122.17674738742272" y2="485.02254409946" stroke="#000" stroke-width="0.5"/>
  <line x1="113.69493333684034" y1="491.4352191871722" x2="115.53448127333155" y2="491.4760038577095" stroke="#000" stroke-width="0.5"/>
  <line x1="113.60429343381207" y1="498.17847667696174" x2="115.44427298888911" y2="498.18715059754766" stroke="#000" stroke-width="0.5"/>
  <line x1="113.63135340610307" y1="504.92228902040114" x2="115.47120410416926" y2="504.89884954887543" stroke="#000" stroke-width="0.5"/>
  <line x1="113.77610501098366" y1="511.66460198692147" x2="115.61526641569327" y2="511.60905626317424" stroke="#000" stroke-width="0.5"/>
  <line x1="114.03850415571287" y1="518.403361802679" x2="119.55223981063119" y2="518.1404566340693" stroke="#000" stroke-width="0.5"/>
  <line x1="114.41847091096918" y1="525.1365157761542" x2="116.2545734304407" y2="525.0168180819819" stroke="#000" stroke-width="0.5"/>
  <line x1="114.91588953519812" y1="531.862012923421" x2="116.7496233945543" y2="531.7102890523572" stroke="#000" stroke-width="0.5"/>
  <line x1="115.53060850986816" y1="538.5778045928971" x2="117.36141513601166" y2="538.3941007615024" stroke="#000" stroke-width="0.5"/>
  <line x1="116.2624405856248" y1="545.2818450893826" x2="118.08976229712181" y2="545.0662172556237" stroke="#000" stroke-width="0.5"/>
  <line x1="117.11116283932824" y1="551.972092297199" x2="125.31592363562834" y2="550.8584046051161" stroke="#000" stroke-width="0.5"/>
  <line x1="118.07651674195824" y1="558.6465083022366" x2="119.89519999556796" y2="558.3672392150831" stroke="#000" stroke-width="0.5"/>
  <line x1="119.15820823736459" y1="565.3030600127239" x2="120.97174057909137" y2="564.9920930602824" stroke="#000" stroke-width="0.5"/>
  <line x1="120.35590783183903" y1="571.9397197785263" x2="122.16373684216359" y2="571.5971496843429" stroke="#000" stroke-width="0.5"/>
  <line x1="121.6692506944828" y1="578.5544660087883" x2="123.47082569117572" y2="578.1803971230322" stroke="#000" stroke-width="0.5"/>
  <line x1="123.09783676833734" y1="585.1452837877301" x2="128.48215338593252" y2="583.9289225907626" stroke="#000" stroke-width="0.5"/>
  <line x1="124.64123089224546" y1="591.7101654884091" x2="126.42865360228234" y2="591.2734504146547" stroke="#000" stroke-width="0.5"/>
  <line x1="126.29896293340579" y1="598.2471113842639" x2="128.07849168134192" y2="597.7792679967198" stroke="#000" stroke-width="0.5"/>
  <line x1="128.07052793057994" y1="604.7541302582501" x2="129.84162065471997" y2="604.2553010665442" stroke="#000" stroke-width="0.5"/>
  <line x1="129.955386247908" y1="611.2292400093836" x2="131.71750345625128" y2="610.6995769617198" stroke="#000" stroke-width="0.5"/>
  <line x1="131.95296373928778" y1="617.6704682565085" x2="139.83968594487442" y2="615.1489582224403" stroke="#000" stroke-width="0.5"/>
  <line x1="134.06265192326413" y1="624.0758529391027" x2="135.8052107236295" y2="623.4850155441546" stroke="#000" stroke-width="0.5"/>
  <line x1="136.28380816837944" y1="630.4434429149421" x2="138.01579003424428" y2="629.8222836629662" stroke="#000" stroke-width="0.5"/>
  <line x1="138.61575588892447" y1="636.7712985544356" x2="140.33663324183436" y2="636.1200066565573" stroke="#000" stroke-width="0.5"/>
  <line x1="141.05778475103347" y1="643.0574923314559" x2="142.76703339507617" y2="642.3762661774966" stroke="#000" stroke-width="0.5"/>
  <line x1="143.60915088905875" y1="649.3001094104833" x2="148.70044873350076" y2="647.1672507046193" stroke="#000" stroke-width="0.5"/>
  <line x1="146.26907713215888" y1="655.4972482298816" x2="147.9535100981962" y2="654.7567851430726" stroke="#000" stroke-width="0.5"/>
  <line x1="149.03675324103284" y1="661.6470210811333" x2="150.7080067970279" y2="660.8772733616993" stroke="#000" stroke-width="0.5"/>
  <line x1="151.91133615472694" y1="667.7475546838537" x2="153.5689012206568" y2="666.9487568044068" stroke="#000" stroke-width="0.5"/>
  <line x1="154.89195024743896" y1="673.7969907564104" x2="156.53532191292732" y2="672.9693860385228" stroke="#000" stroke-width="0.5"/>
  <line x1="157.97768759524234" y1="679.7934865819736" x2="165.30673714677283" y2="675.94076901236" stroke="#000" stroke-width="0.5"/>
  <line x1="161.16760825264873" y1="685.7352155698254" x2="162.78109583239802" y2="684.8507621623501" stroke="#000" stroke-width="0.5"/>
  <line x1="164.46074053892448" y1="691.620367811757" x2="166.0585465363581" y2="690.7078898697962" stroke="#000" stroke-width="0.5"/>
  <line x1="167.8560813340738" y1="697.4471506333848" x2="169.43771904200673" y2="696.5069261065591" stroke="#000" stroke-width="0.5"/>
  <line x1="171.3525963843992" y1="703.2137891402165" x2="172.91758402066398" y2="702.2461044300251" stroke="#000" stroke-width="0.5"/>
  <line x1="174.94922061754488" y1="708.9185267582999" x2="179.59280318015135" y2="705.9339763760385" stroke="#000" stroke-width="0.5"/>
  <line x1="178.64485846692793" y1="714.5596257692933" x2="180.1751210456568" y2="713.53791326563" stroke="#000" stroke-width="0.5"/>
  <line x1="182.4383842054591" y1="720.1353678397916" x2="183.95058237590928" y2="719.0871041834117" stroke="#000" stroke-width="0.5"/>
  <line x1="186.32864228844983" y1="725.644054544747" x2="187.82231542040955" y2="724.5695590469148" stroke="#000" stroke-width="0.5"/>
  <line x1="190.3144477056021" y1="731.0840078848247" x2="191.7891408117659" y2="729.9836078472779" stroke="#000" stroke-width="0.5"/>
  <line x1="194.3945863419745" y1="736.4535707975397" x2="200.94327377750358" y2="731.3867085661639" stroke="#000" stroke-width="0.5"/>
  <line x1="198.5678153478134" y1="741.7511076620127" x2="200.00320670329995" y2="740.5999119112412" stroke="#000" stroke-width="0.5"/>
  <line x1="202.8328635171365" y1="746.9750047971963" x2="204.24794511943583" y2="745.7989333457812" stroke="#000" stroke-width="0.5"/>
  <line x1="207.18843167495487" y1="752.123670953418" x2="208.58277247650267" y2="750.923082044116" stroke="#000" stroke-width="0.5"/>
  <line x1="211.63319307301435" y1="757.1955377970904" x2="213.00636834409522" y2="755.9707971409139" stroke="#000" stroke-width="0.5"/>
  <line x1="216.1657937939359" y1="762.1890603884408" x2="220.22056816830826" y2="758.4435023828917" stroke="#000" stroke-width="0.5"/>
  <line x1="220.78485316363157" y1="767.1027176521145" x2="222.11444910094758" y2="765.8307999490091" stroke="#000" stroke-width="0.5"/>
  <line x1="225.48896417187132" y1="771.935012840509" x2="226.79615958057667" y2="770.6400842079352" stroke="#000" stroke-width="0.5"/>
  <line x1="230.27669390087243" y1="776.6844739896987" x2="231.56109059658252" y2="775.3669288754621" stroke="#000" stroke-width="0.5"/>
  <line x1="235.14658396177975" y1="781.3496543678086" x2="236.40779070481892" y2="780.0098941089144" stroke="#000" stroke-width="0.5"/>
  <line x1="240.09715093890492" y1="785.9291329157027" x2="245.6664977044998" y2="779.8020800675091" stroke="#000" stroke-width="0.5"/>
  <line x1="245.1268868415896" y1="790.4215146798531" x2="246.3405683328201" y2="789.0385550861395" stroke="#000" stroke-width="0.5"/>
  <line x1="250.2342595635535" y1="794.8254312372554" x2="251.42362023229848" y2="793.4215006123161" stroke="#000" stroke-width="0.5"/>
  <line x1="255.4177133495894" y1="799.1395411122649" x2="256.58239090506754" y2="797.7150671069683" stroke="#000" stroke-width="0.5"/>
  <line x1="260.67566926946097" y1="803.3625301852217" x2="261.8153089396064" y2="801.9179467081492" stroke="#000" stroke-width="0.5"/>
  <line x1="266.0065256988598" y1="807.4931120927453" x2="269.3492896174475" y2="803.1003533485632" stroke="#000" stroke-width="0.5"/>
  <line x1="271.4086588072764" y1="811.5300286195727" x2="272.49718900343225" y2="810.0465522928129" stroke="#000" stroke-width="0.5"/>
  <line x1="276.8804230526345" y1="815.4720500818236" x2="277.94289722857434" y2="813.9698022242911" stroke="#000" stroke-width="0.5"/>
  <line x1="282.42015168253863" y1="819.3179757015732" x2="283.4562461983361" y2="817.7974139125181" stroke="#000" stroke-width="0.5"/>
  <line x1="288.02615724198347" y1="823.0666339726213" x2="289.0355564932121" y2="821.5282214298945" stroke="#000" stroke-width="0.5"/>
  <line x1="293.69673208736907" y1="826.7168830173446" x2="298.1175163997826" y2="819.7158069526872" stroke="#000" stroke-width="0.5"/>
  <line x1="299.4301489066657" y1="830.2676109345234" x2="300.38524343568156" y2="828.6949080253114" stroke="#000" stroke-width="0.5"/>
  <line x1="305.2246612455691" y1="833.7177361380373" x2="306.1521628586854" y2="832.1286040611894" stroke="#000" stroke-width="0.5"/>
  <line x1="311.07850403948805" y1="837.0662076863272" x2="311.9781302107285" y2="835.4611305068686" stroke="#000" stroke-width="0.5"/>
  <line x1="316.98989415120013" y1="840.3120056025222" x2="317.8613708457183" y2="838.6914722425101" stroke="#000" stroke-width="0.5"/>
  <line x1="322.95703091401265" y1="843.4541411851342" x2="325.4862161866696" y2="838.547653453918" stroke="#000" stroke-width="0.5"/>
  <line x1="328.9780966802624" y1="846.4916573092263" x2="329.7924866960707" y2="844.8416970363253" stroke="#000" stroke-width="0.5"/>
  <line x1="335.05125737498986" y1="849.423628717962" x2="335.8367275779661" y2="847.7597066764479" stroke="#000" stroke-width="0.5"/>
  <line x1="341.17466305461517" y1="852.2491623044474" x2="341.9309741829265" y2="850.5717853410929" stroke="#000" stroke-width="0.5"/>
  <line x1="347.34644847044956" y1="854.9673973837807" x2="348.07337014439975" y2="853.2770764438579" stroke="#000" stroke-width="0.5"/>
  <line x1="353.564733636868" y1="857.5775059552245" x2="356.7026322017923" y2="849.9151308276125" stroke="#000" stroke-width="0.5"/>
  <line x1="359.82762440397096" y1="860.0786929544231" x2="360.49511190680914" y2="858.3640325117831" stroke="#000" stroke-width="0.5"/>
  <line x1="366.13321303456075" y1="862.4701964955873" x2="366.7706739248724" y2="860.7441479408465" stroke="#000" stroke-width="0.5"/>
  <line x1="372.47957878525705" y1="864.7512881035714" x2="373.0868188862796" y2="863.0143772078401" stroke="#000" stroke-width="0.5"/>
  <line x1="378.86478849157334" y1="866.9212729357739" x2="379.44162283208965" y2="865.1740287789369" stroke="#000" stroke-width="0.5"/>
  <line x1="385.28689715677814" y1="868.979489993794" x2="386.92565576882413" y2="863.7083544224542" stroke="#000" stroke-width="0.5"/>
  <line x1="391.7439485443598" y1="870.9253123247775" x2="392.2594535512914" y2="869.1590013137072" stroke="#000" stroke-width="0.5"/>
  <line x1="398.23397577391484" y1="872.7581472123927" x2="398.71857588927713" y2="870.9831084161433" stroke="#000" stroke-width="0.5"/>
  <line x1="404.7550019202788" y1="874.4774363573777" x2="405.2085495301822" y2="872.6942104699617" stroke="#000" stroke-width="0.5"/>
  <line x1="411.3050406157167" y1="876.0826560476039" x2="411.72739756516563" y2="874.2917862569011" stroke="#000" stroke-width="0.5"/>
  <line x1="417.8820966549905" y1="877.5733173176034" x2="419.6417660123835" y2="869.4824605179406" stroke="#000" stroke-width="0.5"/>
  <line x1="424.48416660311716" y1="878.9489660975132" x2="424.843765809769" y2="877.1444472113346" stroke="#000" stroke-width="0.5"/>
  <line x1="431.10923940563475" y1="880.2091833513887" x2="431.4372906465603" y2="878.3986634306677" stroke="#000" stroke-width="0.5"/>
  <line x1="437.7552970011894" y1="881.3535852048461" x2="438.05170034880274" y2="879.5376157514897" stroke="#000" stroke-width="0.5"/>
  <line x1="444.4203149362553" y1="882.3818230619951" x2="444.6849801032255" y2="880.5609572378903" stroke="#000" stroke-width="0.5"/>
  <line x1="451.102262981804" y1="883.2935837116236" x2="451.80080208206397" y2="877.8179610871717" stroke="#000" stroke-width="0.5"/>
  <line x1="457.79910575173164" y1="884.0885894226051" x2="458.00006239100907" y2="882.2595961396403" stroke="#000" stroke-width="0.5"/>
  <line x1="464.50880332285647" y1="884.7665980284987" x2="464.67780902131904" y2="882.9343761331249" stroke="#000" stroke-width="0.5"/>
  <line x1="471.22931185630006" y1="885.3274030013151" x2="471.3663151331748" y2="883.4925106060708" stroke="#000" stroke-width="0.5"/>
  <line x1="477.9585842200603" y1="885.7708335144271" x2="478.0635433428219" y2="883.9338295453108" stroke="#000" stroke-width="0.5"/>
  <line x1="484.694570612587" y1="886.0967544946045" x2="485.0225440994601" y2="877.8232526125773" stroke="#000" stroke-width="0.5"/>
  <line x1="491.4352191871721" y1="886.3050666631597" x2="491.4760038577094" y2="884.4655187266685" stroke="#000" stroke-width="0.5"/>
  <line x1="498.1784766769616" y1="886.395706566188" x2="498.18715059754754" y2="884.5557270111109" stroke="#000" stroke-width="0.5"/>
  <line x1="504.92228902040097" y1="886.368646593897" x2="504.8988495488752" y2="884.5287958958307" stroke="#000" stroke-width="0.5"/>
  <line x1="511.6646019869214" y1="886.2238949890163" x2="511.6090562631742" y2="884.3847335843068" stroke="#000" stroke-width="0.5"/>
  <line x1="518.403361802679" y1="885.9614958442871" x2="518.1404566340693" y2="880.4477601893689" stroke="#000" stroke-width="0.5"/>
  <line x1="525.1365157761542" y1="885.5815290890308" x2="525.016818081982" y2="883.7454265695593" stroke="#000" stroke-width="0.5"/>
  <line x1="531.862012923421" y1="885.0841104648018" x2="531.7102890523572" y2="883.2503766054457" stroke="#000" stroke-width="0.5"/>
  <line x1="538.5778045928971" y1="884.4693914901318" x2="538.3941007615024" y2="882.6385848639884" stroke="#000" stroke-width="0.5"/>
  <line x1="545.2818450893828" y1="883.7375594143753" x2="545.0662172556238" y2="881.9102377028782" stroke="#000" stroke-width="0.5"/>
  <line x1="551.9720922971991" y1="882.8888371606718" x2="550.8584046051162" y2="874.6840763643717" stroke="#000" stroke-width="0.5"/>
  <line x1="558.6465083022366" y1="881.9234832580418" x2="558.3672392150831" y2="880.104800004432" stroke="#000" stroke-width="0.5"/>
  <line x1="565.3030600127238" y1="880.8417917626355" x2="564.9920930602822" y2="879.0282594209086" stroke="#000" stroke-width="0.5"/>
  <line x1="571.9397197785263" y1="879.644092168161" x2="571.5971496843428" y2="877.8362631578364" stroke="#000" stroke-width="0.5"/>
  <line x1="578.5544660087883" y1="878.3307493055172" x2="578.1803971230322" y2="876.5291743088243" stroke="#000" stroke-width="0.5"/>
  <line x1="585.14528378773" y1="876.9021632316627" x2="583.9289225907625" y2="871.5178466140676" stroke="#000" stroke-width="0.5"/>
  <line x1="591.7101654884091" y1="875.3587691077546" x2="591.2734504146547" y2="873.5713463977177" stroke="#000" stroke-width="0.5"/>
  <line x1="598.247111384264" y1="873.7010370665942" x2="597.7792679967199" y2="871.921508318658" stroke="#000" stroke-width="0.5"/>
  <line x1="604.75413025825" y1="871.9294720694202" x2="604.2553010665441" y2="870.1583793452801" stroke="#000" stroke-width="0.5"/>
  <line x1="611.2292400093836" y1="870.0446137520919" x2="610.6995769617199" y2="868.2824965437487" stroke="#000" stroke-width="0.5"/>
  <line x1="617.6704682565082" y1="868.0470362607123" x2="615.1489582224402" y2="860.1603140551256" stroke="#000" stroke-width="0.5"/>
  <line x1="624.0758529391028" y1="865.9373480767358" x2="623.4850155441546" y2="864.1947892763704" stroke="#000" stroke-width="0.5"/>
  <line x1="630.4434429149421" y1="863.7161918316206" x2="629.8222836629661" y2="861.9842099657558" stroke="#000" stroke-width="0.5"/>
  <line x1="636.7712985544356" y1="861.3842441110755" x2="636.1200066565573" y2="859.6633667581657" stroke="#000" stroke-width="0.5"/>
  <line x1="643.057492331456" y1="858.9422152489665" x2="642.3762661774967" y2="857.2329666049238" stroke="#000" stroke-width="0.5"/>
  <line x1="649.3001094104833" y1="856.3908491109412" x2="647.1672507046193" y2="851.2995512664993" stroke="#000" stroke-width="0.5"/>
  <line x1="655.4972482298815" y1="853.7309228678412" x2="654.7567851430725" y2="852.0464899018039" stroke="#000" stroke-width="0.5"/>
  <line x1="661.6470210811333" y1="850.9632467589672" x2="660.8772733616993" y2="849.2919932029721" stroke="#000" stroke-width="0.5"/>
  <line x1="667.7475546838537" y1="848.088663845273" x2="666.9487568044068" y2="846.4310987793432" stroke="#000" stroke-width="0.5"/>
  <line x1="673.7969907564105" y1="845.1080497525611" x2="672.9693860385229" y2="843.4646780870726" stroke="#000" stroke-width="0.5"/>
  <line x1="679.7934865819736" y1="842.0223124047577" x2="675.9407690123599" y2="834.6932628532272" stroke="#000" stroke-width="0.5"/>
  <line x1="685.7352155698253" y1="838.8323917473513" x2="684.85076216235" y2="837.218904167602" stroke="#000" stroke-width="0.5"/>
  <line x1="691.620367811757" y1="835.5392594610755" x2="690.7078898697962" y2="833.9414534636419" stroke="#000" stroke-width="0.5"/>
  <line x1="697.4471506333849" y1="832.1439186659262" x2="696.5069261065593" y2="830.5622809579933" stroke="#000" stroke-width="0.5"/>
  <line x1="703.2137891402165" y1="828.6474036156008" x2="702.2461044300251" y2="827.082415979336" stroke="#000" stroke-width="0.5"/>
  <line x1="708.9185267582998" y1="825.0507793824552" x2="705.9339763760383" y2="820.4071968198487" stroke="#000" stroke-width="0.5"/>
  <line x1="714.5596257692932" y1="821.3551415330721" x2="713.53791326563" y2="819.8248789543431" stroke="#000" stroke-width="0.5"/>
  <line x1="720.1353678397917" y1="817.5616157945408" x2="719.0871041834117" y2="816.0494176240907" stroke="#000" stroke-width="0.5"/>
  <line x1="725.6440545447468" y1="813.6713577115502" x2="724.5695590469147" y2="812.1776845795905" stroke="#000" stroke-width="0.5"/>
  <line x1="731.0840078848247" y1="809.6855522943979" x2="729.9836078472779" y2="808.2108591882342" stroke="#000" stroke-width="0.5"/>
  <line x1="736.4535707975398" y1="805.6054136580253" x2="731.386708566164" y2="799.0567262224963" stroke="#000" stroke-width="0.5"/>
  <line x1="741.7511076620127" y1="801.4321846521866" x2="740.5999119112412" y2="799.9967932967" stroke="#000" stroke-width="0.5"/>
  <line x1="746.9750047971962" y1="797.1671364828635" x2="745.798933345781" y2="795.7520548805642" stroke="#000" stroke-width="0.5"/>
  <line x1="752.123670953418" y1="792.8115683250452" x2="750.923082044116" y2="791.4172275234973" stroke="#000" stroke-width="0.5"/>
  <line x1="757.1955377970904" y1="788.3668069269856" x2="755.9707971409139" y2="786.9936316559048" stroke="#000" stroke-width="0.5"/>
  <line x1="762.1890603884408" y1="783.8342062060641" x2="758.4435023828917" y2="779.7794318316917" stroke="#000" stroke-width="0.5"/>
  <line x1="767.1027176521144" y1="779.2151468363686" x2="765.8307999490091" y2="777.8855508990525" stroke="#000" stroke-width="0.5"/>
  <line x1="771.935012840509" y1="774.5110358281288" x2="770.6400842079352" y2="773.2038404194234" stroke="#000" stroke-width="0.5"/>
  <line x1="776.6844739896987" y1="769.7233060991275" x2="775.3669288754621" y2="768.4389094034175" stroke="#000" stroke-width="0.5"/>
  <line x1="781.3496543678086" y1="764.8534160382203" x2="780.0098941089143" y2="763.5922092951812" stroke="#000" stroke-width="0.5"/>
  <line x1="785.9291329157027" y1="759.9028490610951" x2="779.8020800675091" y2="754.3335022955002" stroke="#000" stroke-width="0.5"/>
  <line x1="790.4215146798531" y1="754.8731131584104" x2="789.0385550861395" y2="753.65943166718" stroke="#000" stroke-width="0.5"/>
  <line x1="794.8254312372554" y1="749.7657404364465" x2="793.4215006123161" y2="748.5763797677015" stroke="#000" stroke-width="0.5"/>
  <line x1="799.1395411122649" y1="744.5822866504105" x2="797.7150671069684" y2="743.4176090949325" stroke="#000" stroke-width="0.5"/>
  <line x1="803.3625301852217" y1="739.324330730539" x2="801.9179467081492" y2="738.1846910603936" stroke="#000" stroke-width="0.5"/>
  <line x1="807.4931120927454" y1="733.9934743011402" x2="803.1003533485632" y2="730.6507103825525" stroke="#000" stroke-width="0.5"/>
  <line x1="811.5300286195728" y1="728.5913411927236" x2="810.046552292813" y2="727.5028109965676" stroke="#000" stroke-width="0.5"/>
  <line x1="815.4720500818237" y1="723.1195769473654" x2="813.9698022242912" y2="722.0571027714257" stroke="#000" stroke-width="0.5"/>
  <line x1="819.3179757015732" y1="717.5798483174615" x2="817.7974139125181" y2="716.543753801664" stroke="#000" stroke-width="0.5"/>
  <line x1="823.0666339726213" y1="711.9738427580165" x2="821.5282214298945" y2="710.9644435067879" stroke="#000" stroke-width="0.5"/>
  <line x1="826.7168830173446" y1="706.3032679126309" x2="819.7158069526872" y2="701.8824836002174" stroke="#000" stroke-width="0.5"/>
  <line x1="830.2676109345233" y1="700.5698510933344" x2="828.6949080253114" y2="699.6147565643184" stroke="#000" stroke-width="0.5"/>
  <line x1="833.7177361380373" y1="694.775338754431" x2="832.1286040611894" y2="693.8478371413146" stroke="#000" stroke-width="0.5"/>
  <line x1="837.0662076863271" y1="688.921495960512" x2="835.4611305068685" y2="688.0218697892715" stroke="#000" stroke-width="0.5"/>
  <line x1="840.3120056025222" y1="683.0101058487999" x2="838.6914722425101" y2="682.1386291542817" stroke="#000" stroke-width="0.5"/>
  <line x1="843.4541411851342" y1="677.0429690859874" x2="838.547653453918" y2="674.5137838133304" stroke="#000" stroke-width="0.5"/>
  <line x1="846.4916573092263" y1="671.0219033197376" x2="844.8416970363253" y2="670.2075133039293" stroke="#000" stroke-width="0.5"/>
  <line x1="849.423628717962" y1="664.9487426250103" x2="847.7597066764479" y2="664.163272422034" stroke="#000" stroke-width="0.5"/>
  <line x1="852.2491623044474" y1="658.825336945385" x2="850.5717853410929" y2="658.0690258170736" stroke="#000" stroke-width="0.5"/>
  <line x1="854.9673973837807" y1="652.6535515295504" x2="853.2770764438579" y2="651.9266298556003" stroke="#000" stroke-width="0.5"/>
  <line x1="857.5775059552244" y1="646.435266363132" x2="849.9151308276125" y2="643.2973677982077" stroke="#000" stroke-width="0.5"/>
  <line x1="860.0786929544231" y1="640.172375596029" x2="858.3640325117831" y2="639.5048880931907" stroke="#000" stroke-width="0.5"/>
  <line x1="862.4701964955873" y1="633.8667869654391" x2="860.7441479408465" y2="633.2293260751276" stroke="#000" stroke-width="0.5"/>
  <line x1="864.7512881035714" y1="627.520421214743" x2="863.0143772078401" y2="626.9131811137204" stroke="#000" stroke-width="0.5"/>
  <line x1="866.9212729357739" y1="621.1352115084268" x2="865.1740287789369" y2="620.5583771679104" stroke="#000" stroke-width="0.5"/>
  <line x1="868.979489993794" y1="614.7131028432219" x2="863.7083544224542" y2="613.0743442311758" stroke="#000" stroke-width="0.5"/>
  <line x1="870.9253123247775" y1="608.2560514556402" x2="869.1590013137072" y2="607.7405464487085" stroke="#000" stroke-width="0.5"/>
  <line x1="872.7581472123927" y1="601.7660242260852" x2="870.9831084161433" y2="601.2814241107229" stroke="#000" stroke-width="0.5"/>
  <line x1="874.4774363573777" y1="595.2449980797213" x2="872.6942104699617" y2="594.7914504698178" stroke="#000" stroke-width="0.5"/>
  <line x1="876.0826560476039" y1="588.6949593842834" x2="874.2917862569011" y2="588.2726024348344" stroke="#000" stroke-width="0.5"/>
  <line x1="877.5733173176034" y1="582.1179033450096" x2="869.4824605179406" y2="580.3582339876165" stroke="#000" stroke-width="0.5"/>
  <line x1="878.9489660975132" y1="575.5158333968828" x2="877.1444472113346" y2="575.1562341902311" stroke="#000" stroke-width="0.5"/>
  <line x1="880.2091833513887" y1="568.8907605943652" x2="878.3986634306677" y2="568.5627093534397" stroke="#000" stroke-width="0.5"/>
  <line x1="881.3535852048461" y1="562.2447029988107" x2="879.5376157514897" y2="561.9482996511973" stroke="#000" stroke-width="0.5"/>
  <line x1="882.3818230619951" y1="555.5796850637448" x2="880.5609572378903" y2="555.3150198967746" stroke="#000" stroke-width="0.5"/>
  <line x1="883.2935837116236" y1="548.8977370181959" x2="877.8179610871717" y2="548.1991979179361" stroke="#000" stroke-width="0.5"/>
  <line x1="884.088589422605" y1="542.2008942482684" x2="882.2595961396403" y2="541.9999376089909" stroke="#000" stroke-width="0.5"/>
  <line x1="884.7665980284987" y1="535.4911966771435" x2="882.9343761331249" y2="535.322190978681" stroke="#000" stroke-width="0.5"/>
  <line x1="885.3274030013151" y1="528.7706881436999" x2="883.4925106060708" y2="528.6336848668251" stroke="#000" stroke-width="0.5"/>
  <line x1="885.7708335144271" y1="522.0414157799397" x2="883.9338295453108" y2="521.9364566571782" stroke="#000" stroke-width="0.5"/>
  <line x1="276.7633357989048" y1="184.61079321516496" x2="274.4523972460984" y2="181.34589459420397" stroke="#666" stroke-width="0.5"/>
  <line x1="628.4568931489002" y1="135.5774614509525" x2="629.7866746514768" y2="131.80497140386092" stroke="#666" stroke-width="0.5"/>
  <line x1="871.6646575768557" y1="394.3101598625555" x2="875.5121178002187" y2="393.21606213856535" stroke="#666" stroke-width="0.5"/>
  <line x1="800.9901998060666" y1="742.3011754422666" x2="804.1060403837691" y2="744.809469183905" stroke="#666" stroke-width="0.5"/>
  <text x="817.1146747956773" y="755.2815955552452" fill="#666" font-size="11.040000000000001" text-anchor="middle" dominant-baseline="central" font-family="sans-serif" transform="rotate(51.16546556173333 817.1146747956773 755.2815955552452)">94</text>
  <line x1="476.1202707975093" y1="885.661403997361" x2="475.6258664661948" y2="893.6461121546563" stroke="#666" stroke-width="0.5"/>
  <line x1="145.10958342380127" y1="347.1675681592021" x2="141.43576958760877" y2="345.5854518875583" stroke="#666" stroke-width="0.5"/>
  <line x1="421.9477671162075" y1="121.5653174696402" x2="421.1397729869757" y2="117.64777417222444" stroke="#666" stroke-width="0.5"/>
  <line x1="765.4578851279196" y1="219.22060042906946" x2="768.2058963611278" y2="216.31398138589213" stroke="#666" stroke-width="0.5"/>
  <line x1="882.2148401886002" y1="556.7166284223844" x2="886.1715155528714" y2="557.3037570810011" stroke="#666" stroke-width="0.5"/>
  <text x="902.6906351987037" y="559.7550192307264" fill="#666" font-size="11.040000000000001" text-anchor="middle" dominant-baseline="central" font-family="sans-serif" transform="rotate(81.5595059522382 902.6906351987037 559.7550192307264)">99</text>
  <line x1="672.4852646351159" y1="845.7655180664406" x2="676.0563881265261" y2="852.9242244446277" stroke="#666" stroke-width="0.5"/>
  <line x1="115.83991691239481" y1="541.5450425697729" x2="111.86310445807175" y2="541.9751154742219" stroke="#666" stroke-width="0.5"/>
  <line x1="247.11325510855784" y1="207.84720734141422" x2="244.49537990264227" y2="204.82285130975185" stroke="#666" stroke-width="0.5"/>
  <line x1="596.1819787745245" y1="125.76212516767237" x2="597.1776514326458" y2="121.88802708452198" stroke="#666" stroke-width="0.5"/>
  <line x1="862.4152372940737" y1="365.9844942662223" x2="866.1669478250683" y2="364.59717019030336" stroke="#666" stroke-width="0.5"/>
  <text x="881.8303392919705" y="358.80509217334145" fill="#666" font-size="11.040000000000001" text-anchor="middle" dominant-baseline="central" font-family="sans-serif" transform="rotate(-69.70639188938316 881.8303392919705 358.80509217334145)">04</text>
  <line x1="816.5231357419559" y1="721.6259563771341" x2="823.0764097738804" y2="726.2144854946731" stroke="#666" stroke-width="0.5"/>
  <line x1="181.29359572060605" y1="718.474684737842" x2="177.9943575810678" y2="720.7363274369916" stroke="#666" stroke-width="0.5"/>
  <line x1="138.89412646740038" y1="362.4954251660762" x2="135.15597042669026" y2="361.0719823624123" stroke="#666" stroke-width="0.5"/>
  <line x1="407.3279146562245" y1="124.87756052451891" x2="406.36857629862845" y2="120.99430545748493" stroke="#666" stroke-width="0.5"/>
  <line x1="755.5321199793775" y1="210.15815405838129" x2="758.1773800205718" y2="207.15772087057985" stroke="#666" stroke-width="0.5"/>
  <text x="769.2213406925584" y="194.6309123115089" fill="#666" font-size="11.040000000000001" text-anchor="middle" dominant-baseline="central" font-family="sans-serif" transform="rotate(-41.400240223256674 769.2213406925584 194.6309123115089)">09</text>
  <line x1="883.7790023788225" y1="544.9292480809073" x2="891.7247374177216" y2="545.8594602564955" stroke="#666" stroke-width="0.5"/>
  <line x1="324.8784975400489" y1="844.4378309305895" x2="323.0656455477099" y2="848.0034399464341" stroke="#666" stroke-width="0.5"/>
  <line x1="117.41150571518148" y1="554.1387480541929" x2="113.45096229608396" y2="554.6991905806337" stroke="#666" stroke-width="0.5"/>
  <line x1="236.18738556476234" y1="217.67418739186348" x2="233.45640611926297" y2="214.7515599321519" stroke="#666" stroke-width="0.5"/>
  <line x1="579.9229445551994" y1="121.95597751898453" x2="580.7503042296838" y2="118.04247832145847" stroke="#666" stroke-width="0.5"/>
  <text x="584.2045308706564" y="101.7036191717873" fill="#666" font-size="11.040000000000001" text-anchor="middle" dominant-baseline="central" font-family="sans-serif" transform="rotate(-11.937227381274965 584.2045308706564 101.7036191717873)">14</text>
  <line x1="855.5061902014847" y1="348.6054534389508" x2="862.8665668102112" y2="345.47099077723135" stroke="#666" stroke-width="0.5"/>
  <line x1="522.8671590826864" y1="885.7227670691569" x2="523.1038791560061" y2="889.715756376291" stroke="#666" stroke-width="0.5"/>
  <line x1="198.50156771382137" y1="741.6684822830163" x2="195.38046593032055" y2="744.1702264060289" stroke="#666" stroke-width="0.5"/>
  <line x1="128.5022859637382" y1="393.72484549137636" x2="124.65655393437731" y2="392.6246886124051" stroke="#666" stroke-width="0.5"/>
  <line x1="371.9258695820646" y1="135.44276564894557" x2="370.6000504265994" y2="131.66888123537353" stroke="#666" stroke-width="0.5"/>
  <text x="365.0647554525323" y="115.91291380871053" fill="#666" font-size="11.040000000000001" text-anchor="middle" dominant-baseline="central" font-family="sans-serif" transform="rotate(19.3570990557931 365.0647554525323 115.91291380871053)">19</text>
  <line x1="723.4022336577115" y1="184.72805072961967" x2="728.0275387023846" y2="178.2006811795083" stroke="#666" stroke-width="0.5"/>
  <line x1="723.2366642010952" y1="815.3892067848351" x2="725.5476027539016" y2="818.654105405796" stroke="#666" stroke-width="0.5"/>
  <line x1="371.5431068511001" y1="864.4225385490477" x2="370.2133253485235" y2="868.1950285961392" stroke="#666" stroke-width="0.5"/>
  <line x1="128.33534242314425" y1="605.6898401374444" x2="124.48788219978138" y2="606.7839378614345" stroke="#666" stroke-width="0.5"/>
  <line x1="199.0098001939333" y1="257.6988245577335" x2="195.89395961623075" y2="255.19053081609508" stroke="#666" stroke-width="0.5"/>
  <text x="182.8853252043226" y="244.71840444475487" fill="#666" font-size="11.040000000000001" text-anchor="middle" dominant-baseline="central" font-family="sans-serif" transform="rotate(51.16546556173333 182.8853252043226 244.71840444475487)">24</text>
  <line x1="523.8797292024902" y1="114.33859600263895" x2="524.3741335338048" y2="106.3538878453437" stroke="#666" stroke-width="0.5"/>
  <line x1="854.8904165761986" y1="652.8324318407981" x2="858.5642304123912" y2="654.4145481124419" stroke="#666" stroke-width="0.5"/>
  <line x1="578.0522328837925" y1="878.4346825303599" x2="578.8602270130243" y2="882.3522258277756" stroke="#666" stroke-width="0.5"/>
  <line x1="234.54211487208067" y1="780.7793995709308" x2="231.7941036388724" y2="783.686018614108" stroke="#666" stroke-width="0.5"/>
  <line x1="117.78515981139986" y1="443.2833715776155" x2="113.82848444712863" y2="442.6962429189987" stroke="#666" stroke-width="0.5"/>
  <text x="97.30936480129628" y="440.24498076927347" fill="#666" font-size="11.040000000000001" text-anchor="middle" dominant-baseline="central" font-family="sans-serif" transform="rotate(81.55950595223817 97.30936480129628 440.24498076927347)">29</text>
  <line x1="327.5147353648839" y1="154.2344819335596" x2="323.9436118734736" y2="147.0757755553724" stroke="#666" stroke-width="0.5"/>
  <line x1="884.1600830876052" y1="458.45495743022724" x2="888.1368955419282" y2="458.02488452577825" stroke="#666" stroke-width="0.5"/>
  <line x1="752.8867448914422" y1="792.1527926585859" x2="755.5046200973577" y2="795.1771486902483" stroke="#666" stroke-width="0.5"/>
  <line x1="403.8180212254754" y1="874.2378748323276" x2="402.822348567354" y2="878.111972915478" stroke="#666" stroke-width="0.5"/>
  <line x1="137.58476270592632" y1="634.0155057337778" x2="133.83305217493177" y2="635.4028298096968" stroke="#666" stroke-width="0.5"/>
  <text x="118.16966070802948" y="641.1949078266587" fill="#666" font-size="11.040000000000001" text-anchor="middle" dominant-baseline="central" font-family="sans-serif" transform="rotate(-69.70639188938316 118.16966070802948 641.1949078266587)">34</text>
  <line x1="183.4768642580441" y1="278.3740436228659" x2="176.92359022611953" y2="273.7855145053269" stroke="#666" stroke-width="0.5"/>
  <line x1="818.7064042793938" y1="281.52531526215773" x2="822.0056424189321" y2="279.2636725630082" stroke="#666" stroke-width="0.5"/>
  <line x1="861.1058735325996" y1="637.5045748339237" x2="864.8440295733099" y2="638.9280176375876" stroke="#666" stroke-width="0.5"/>
  <line x1="592.6720853437753" y1="875.1224394754811" x2="593.6314237013713" y2="879.0056945425151" stroke="#666" stroke-width="0.5"/>
  <line x1="244.46788002062263" y1="789.8418459416188" x2="241.82261997942823" y2="792.8422791294201" stroke="#666" stroke-width="0.5"/>
  <text x="230.77865930744167" y="805.3690876884912" fill="#666" font-size="11.040000000000001" text-anchor="middle" dominant-baseline="central" font-family="sans-serif" transform="rotate(-41.400240223256645 230.77865930744167 805.3690876884912)">39</text>
  <line x1="116.2209976211775" y1="455.0707519190927" x2="108.27526258227846" y2="454.1405397435045" stroke="#666" stroke-width="0.5"/>
  <line x1="675.1215024599517" y1="155.56216906941086" x2="676.9343544522907" y2="151.9965600535662" stroke="#666" stroke-width="0.5"/>
  <line x1="882.5884942848185" y1="445.8612519458066" x2="886.5490377039159" y2="445.3008094193657" stroke="#666" stroke-width="0.5"/>
  <line x1="763.8126144352377" y1="782.3258126081364" x2="766.5435938807371" y2="785.2484400678479" stroke="#666" stroke-width="0.5"/>
  <line x1="420.077055444801" y1="878.0440224810155" x2="419.2496957703165" y2="881.9575216785415" stroke="#666" stroke-width="0.5"/>
  <text x="415.79546912934387" y="898.2963808282127" fill="#666" font-size="11.040000000000001" text-anchor="middle" dominant-baseline="central" font-family="sans-serif" transform="rotate(-11.937227381274937 415.79546912934387 898.2963808282127)">44</text>
  <line x1="144.4938097985152" y1="651.3945465610492" x2="137.13343318978878" y2="654.5290092227687" stroke="#666" stroke-width="0.5"/>
  <line x1="477.1328409173133" y1="114.27723293084307" x2="476.8961208439935" y2="110.28424362370896" stroke="#666" stroke-width="0.5"/>
  <line x1="801.4984322861786" y1="258.33151771698374" x2="804.6195340696795" y2="255.8297735939711" stroke="#666" stroke-width="0.5"/>
  <line x1="871.4977140362618" y1="606.2751545086239" x2="875.3434460656226" y2="607.3753113875952" stroke="#666" stroke-width="0.5"/>
  <line x1="628.074130417935" y1="864.5572343510546" x2="629.3999495734001" y2="868.3311187646266" stroke="#666" stroke-width="0.5"/>
  <text x="634.9352445474672" y="884.0870861912897" fill="#666" font-size="11.040000000000001" text-anchor="middle" dominant-baseline="central" font-family="sans-serif" transform="rotate(19.357099055793043 634.9352445474672 884.0870861912897)">49</text>
  <line x1="276.5977663422881" y1="815.27194927038" x2="271.9724612976149" y2="821.7993188204914" stroke="#666" stroke-width="0.5"/>
  <text x="820.8155317983795" y="427.5251453473487" fill="#ee0000" font-size="55.199999999999996" text-anchor="middle" dominant-baseline="central" font-family="Astro-Nex" font-weight="normal" transform="rotate(437.2700983054989 820.8155317983795 427.5251453473487)">q</text>
  <text x="869.214235833505" y="449.88405385627254" fill="#666" font-size="16.1" text-anchor="middle" dominant-baseline="central" font-family="sans-serif" transform="rotate(442.2700983054989 869.214235833505 449.88405385627254)">10</text>
  <text x="854.9024992514012" y="386.5320484669386" fill="#666" font-size="16.1" text-anchor="middle" dominant-baseline="central" font-family="sans-serif" transform="rotate(432.2700983054989 854.9024992514012 386.5320484669386)">20</text>
  <text x="741.5969731396856" y="276.8271688360296" fill="#00cc00" font-size="55.199999999999996" text-anchor="middle" dominant-baseline="central" font-family="Astro-Nex" font-weight="normal" transform="rotate(407.2700983054989 741.5969731396856 276.8271688360296)">w</text>
  <text x="794.6909345988104" y="271.99119958808666" fill="#666" font-size="16.1" text-anchor="middle" dominant-baseline="central" font-family="sans-serif" transform="rotate(412.2700983054989 794.6909345988104 271.99119958808666)">10</text>
  <text x="750.6206044517703" y="224.2826218312867" fill="#666" font-size="16.1" text-anchor="middle" dominant-baseline="central" font-family="sans-serif" transform="rotate(402.2700983054989 750.6206044517703 224.2826218312867)">20</text>
  <text x="597.642700634409" y="185.92817220766335" fill="#FFD700" font-size="55.199999999999996" text-anchor="middle" dominant-baseline="central" font-family="Astro-Nex" font-weight="normal" transform="rotate(377.2700983054989 597.642700634409 185.92817220766335)">e</text>
  <text x="641.2054354215918" y="155.19311925746223" fill="#666" font-size="16.1" text-anchor="middle" dominant-baseline="central" font-family="sans-serif" transform="rotate(382.2700983054989 641.2054354215918 155.19311925746223)">10</text>
  <text x="579.185121082688" y="135.91144401516817" fill="#666" font-size="16.1" text-anchor="middle" dominant-baseline="central" font-family="sans-serif" transform="rotate(372.2700983054989 579.185121082688 135.91144401516817)">20</text>
  <text x="427.52514534734905" y="179.1844682016204" fill="#0000f7" font-size="55.199999999999996" text-anchor="middle" dominant-baseline="central" font-family="Astro-Nex" font-weight="normal" transform="rotate(347.2700983054989 427.52514534734905 179.1844682016204)">r</text>
  <text x="449.88405385627254" y="130.78576416649503" fill="#666" font-size="16.1" text-anchor="middle" dominant-baseline="central" font-family="sans-serif" transform="rotate(352.2700983054989 449.88405385627254 130.78576416649503)">10</text>
  <text x="386.5320484669383" y="145.09750074859886" fill="#666" font-size="16.1" text-anchor="middle" dominant-baseline="central" font-family="sans-serif" transform="rotate(342.2700983054989 386.5320484669383 145.09750074859886)">20</text>
  <text x="276.8271688360296" y="258.4030268603144" fill="#ee0000" font-size="55.199999999999996" text-anchor="middle" dominant-baseline="central" font-family="Astro-Nex" font-weight="normal" transform="rotate(317.2700983054989 276.8271688360296 258.4030268603144)">t</text>
  <text x="271.9911995880867" y="205.30906540118968" fill="#666" font-size="16.1" text-anchor="middle" dominant-baseline="central" font-family="sans-serif" transform="rotate(322.2700983054989 271.9911995880867 205.30906540118968)">10</text>
  <text x="224.28262183128658" y="249.37939554822972" fill="#666" font-size="16.1" text-anchor="middle" dominant-baseline="central" font-family="sans-serif" transform="rotate(312.2700983054989 224.28262183128658 249.37939554822972)">20</text>
  <text x="185.9281722076634" y="402.3572993655909" fill="#00cc00" font-size="55.199999999999996" text-anchor="middle" dominant-baseline="central" font-family="Astro-Nex" font-weight="normal" transform="rotate(287.2700983054989 185.9281722076634 402.3572993655909)">y</text>
  <text x="155.19311925746206" y="358.7945645784086" fill="#666" font-size="16.1" text-anchor="middle" dominant-baseline="central" font-family="sans-serif" transform="rotate(292.2700983054989 155.19311925746206 358.7945645784086)">10</text>
  <text x="135.91144401516806" y="420.81487891731234" fill="#666" font-size="16.1" text-anchor="middle" dominant-baseline="central" font-family="sans-serif" transform="rotate(282.2700983054989 135.91144401516806 420.81487891731234)">20</text>
  <text x="179.18446820162046" y="572.4748546526512" fill="#FFD700" font-size="55.199999999999996" text-anchor="middle" dominant-baseline="central" font-family="Astro-Nex" font-weight="normal" transform="rotate(257.2700983054989 179.18446820162046 572.4748546526512)">u</text>
  <text x="130.78576416649503" y="550.1159461437276" fill="#666" font-size="16.1" text-anchor="middle" dominant-baseline="central" font-family="sans-serif" transform="rotate(262.2700983054989 130.78576416649503 550.1159461437276)">10</text>
  <text x="145.09750074859886" y="613.4679515330616" fill="#666" font-size="16.1" text-anchor="middle" dominant-baseline="central" font-family="sans-serif" transform="rotate(252.27009830549886 145.09750074859886 613.4679515330616)">20</text>
  <text x="258.4030268603145" y="723.1728311639705" fill="#0000f7" font-size="55.199999999999996" text-anchor="middle" dominant-baseline="central" font-family="Astro-Nex" font-weight="normal" transform="rotate(227.27009830549886 258.4030268603145 723.1728311639705)">i</text>
  <text x="205.30906540118968" y="728.0088004119133" fill="#666" font-size="16.1" text-anchor="middle" dominant-baseline="central" font-family="sans-serif" transform="rotate(232.27009830549886 205.30906540118968 728.0088004119133)">10</text>
  <text x="249.37939554822972" y="775.7173781687134" fill="#666" font-size="16.1" text-anchor="middle" dominant-baseline="central" font-family="sans-serif" transform="rotate(222.27009830549886 249.37939554822972 775.7173781687134)">20</text>
  <text x="402.3572993655909" y="814.0718277923365" fill="#ee0000" font-size="55.199999999999996" text-anchor="middle" dominant-baseline="central" font-family="Astro-Nex" font-weight="normal" transform="rotate(197.27009830549886 402.3572993655909 814.0718277923365)">o</text>
  <text x="358.7945645784084" y="844.8068807425379" fill="#666" font-size="16.1" text-anchor="middle" dominant-baseline="central" font-family="sans-serif" transform="rotate(202.27009830549886 358.7945645784084 844.8068807425379)">10</text>
  <text x="420.8148789173123" y="864.0885559848319" fill="#666" font-size="16.1" text-anchor="middle" dominant-baseline="central" font-family="sans-serif" transform="rotate(192.27009830549886 420.8148789173123 864.0885559848319)">20</text>
  <text x="572.4748546526512" y="820.8155317983795" fill="#00cc00" font-size="55.199999999999996" text-anchor="middle" dominant-baseline="central" font-family="Astro-Nex" font-weight="normal" transform="rotate(167.27009830549886 572.4748546526512 820.8155317983795)">p</text>
  <text x="550.1159461437277" y="869.214235833505" fill="#666" font-size="16.1" text-anchor="middle" dominant-baseline="central" font-family="sans-serif" transform="rotate(172.27009830549886 550.1159461437277 869.214235833505)">10</text>
  <text x="613.4679515330615" y="854.9024992514012" fill="#666" font-size="16.1" text-anchor="middle" dominant-baseline="central" font-family="sans-serif" transform="rotate(162.27009830549886 613.4679515330615 854.9024992514012)">20</text>
  <text x="723.1728311639705" y="741.5969731396855" fill="#FFD700" font-size="55.199999999999996" text-anchor="middle" dominant-baseline="central" font-family="Astro-Nex" font-weight="normal" transform="rotate(137.27009830549886 723.1728311639705 741.5969731396855)">a</text>
  <text x="728.0088004119134" y="794.6909345988103" fill="#666" font-size="16.1" text-anchor="middle" dominant-baseline="central" font-family="sans-serif" transform="rotate(142.27009830549886 728.0088004119134 794.6909345988103)">10</text>
  <text x="775.7173781687134" y="750.6206044517703" fill="#666" font-size="16.1" text-anchor="middle" dominant-baseline="central" font-family="sans-serif" transform="rotate(132.27009830549886 775.7173781687134 750.6206044517703)">20</text>
  <text x="814.0718277923365" y="597.642700634409" fill="#0000f7" font-size="55.199999999999996" text-anchor="middle" dominant-baseline="central" font-family="Astro-Nex" font-weight="normal" transform="rotate(107.27009830549886 814.0718277923365 597.642700634409)">s</text>
  <text x="844.8068807425379" y="641.2054354215916" fill="#666" font-size="16.1" text-anchor="middle" dominant-baseline="central" font-family="sans-serif" transform="rotate(112.27009830549886 844.8068807425379 641.2054354215916)">10</text>
  <text x="864.0885559848319" y="579.1851210826878" fill="#666" font-size="16.1" text-anchor="middle" dominant-baseline="central" font-family="sans-serif" transform="rotate(102.27009830549886 864.0885559848319 579.1851210826878)">20</text>
  <line x1="113.60000000000002" y1="500.00000000000006" x2="76.80000000000001" y2="500.00000000000006" stroke="#b30033" stroke-width="0.6"/>
  <text x="56.46799999999996" y="500.00000000000006" fill="#b30033" font-size="16.1" font-weight="bold" text-anchor="middle" dominant-baseline="central" font-family="sans-serif" transform="rotate(0 56.46799999999996 500.00000000000006)">AC</text>
  <line x1="171.41750677162793" y1="703.3187279712" x2="140.12393598797343" y2="722.6824163494096" stroke="#1a1a99" stroke-width="0.5"/>
  <text x="136.52517534785318" y="724.9092405129036" fill="#1a1a99" font-size="16.1" font-weight="bold" text-anchor="middle" dominant-baseline="central" font-family="sans-serif" transform="rotate(-58.25180165740002 136.52517534785318 724.9092405129036)">2</text>
  <line x1="315.4194014456059" y1="839.4627558912782" x2="297.8402968213779" y2="871.7925421666382" stroke="#00991a" stroke-width="0.5"/>
  <text x="295.8186997895916" y="875.5104675883046" fill="#00991a" font-size="16.1" font-weight="bold" text-anchor="middle" dominant-baseline="central" font-family="sans-serif" transform="rotate(-28.53484024294275 295.8186997895916 875.5104675883046)">3</text>
  <line x1="498.02964344227917" y1="886.394976280794" x2="497.841990436782" y2="923.1944978313459" stroke="#b30033" stroke-width="0.6"/>
  <text x="497.73831215124477" y="943.5262334880258" fill="#b30033" font-size="16.1" font-weight="bold" text-anchor="middle" dominant-baseline="central" font-family="sans-serif" transform="rotate(0 497.73831215124477 943.5262334880258)">IC</text>
  <line x1="681.6760173549877" y1="841.0260763021358" x2="698.9784951983199" y2="873.5047502356726" stroke="#1a1a99" stroke-width="0.5"/>
  <text x="700.9682801503031" y="877.2397977380293" fill="#1a1a99" font-size="16.1" font-weight="bold" text-anchor="middle" dominant-baseline="central" font-family="sans-serif" transform="rotate(28.045723521416704 700.9682801503031 877.2397977380293)">5</text>
  <line x1="827.940328851802" y1="704.3528828095459" x2="859.1727411234021" y2="723.8150621247407" stroke="#00991a" stroke-width="0.5"/>
  <text x="862.7644685346362" y="726.0532127459882" fill="#00991a" font-size="16.1" font-weight="bold" text-anchor="middle" dominant-baseline="central" font-family="sans-serif" transform="rotate(58.07129716737924 862.7644685346362 726.0532127459882)">6</text>
  <line x1="886.4" y1="500" x2="923.2" y2="500" stroke="#b30033" stroke-width="0.6"/>
  <text x="943.532" y="500" fill="#b30033" font-size="16.1" font-weight="bold" text-anchor="middle" dominant-baseline="central" font-family="sans-serif" transform="rotate(0 943.532 500)">DC</text>
  <line x1="828.5824932283722" y1="296.68127202880015" x2="859.8760640120266" y2="277.3175836505906" stroke="#1a1a99" stroke-width="0.5"/>
  <text x="863.4748246521469" y="275.09075948709653" fill="#1a1a99" font-size="16.1" font-weight="bold" text-anchor="middle" dominant-baseline="central" font-family="sans-serif" transform="rotate(-58.25180165740005 863.4748246521469 275.09075948709653)">8</text>
  <line x1="684.5805985543942" y1="160.53724410872178" x2="702.1597031786223" y2="128.20745783336196" stroke="#00991a" stroke-width="0.5"/>
  <text x="704.1813002104085" y="124.48953241169556" fill="#00991a" font-size="16.1" font-weight="bold" text-anchor="middle" dominant-baseline="central" font-family="sans-serif" transform="rotate(-28.534840242942778 704.1813002104085 124.48953241169556)">9</text>
  <line x1="501.9703565577208" y1="113.60502371920592" x2="502.158009563218" y2="76.80550216865407" stroke="#b30033" stroke-width="0.6"/>
  <text x="502.2616878487552" y="56.473766511974134" fill="#b30033" font-size="16.1" font-weight="bold" text-anchor="middle" dominant-baseline="central" font-family="sans-serif" transform="rotate(0 502.2616878487552 56.473766511974134)">MC</text>
  <line x1="318.32398264501245" y1="158.9739236978641" x2="301.0215048016803" y2="126.4952497643273" stroke="#1a1a99" stroke-width="0.5"/>
  <text x="299.0317198496971" y="122.76020226197056" fill="#1a1a99" font-size="16.1" font-weight="bold" text-anchor="middle" dominant-baseline="central" font-family="sans-serif" transform="rotate(28.045723521416676 299.0317198496971 122.76020226197056)">11</text>
  <line x1="172.05967114819805" y1="295.6471171904542" x2="140.82725887659785" y2="276.1849378752594" stroke="#00991a" stroke-width="0.5"/>
  <text x="137.2355314653638" y="273.94678725401195" fill="#00991a" font-size="16.1" font-weight="bold" text-anchor="middle" dominant-baseline="central" font-family="sans-serif" transform="rotate(58.07129716737924 137.2355314653638 273.94678725401195)">12</text>
  <line x1="527.577572877198" y1="301.80946673919357" x2="530.4304252438047" y2="281.3069977811791" stroke="#ee0000" stroke-width="0.5" opacity="0.5"/>
  <line x1="694.2900620811881" y1="547.8683797144637" x2="714.3890340206214" y2="552.8202810642358" stroke="#ee0000" stroke-width="0.5" opacity="0.5"/>
  <path d="M 527.577572877198 301.80946673919357 C 610.8902002344191 424.8684752530509, 610.8902002344191 424.8684752530509, 694.2900620811881 547.8683797144637 C 610.977434723967 424.80937120060634, 610.977434723967 424.80937120060634, 527.577572877198 301.80946673919357 Z" fill="#ee0000" stroke="#ee0000" stroke-width="0.55" class="aspect-line fusus"/>
  <line x1="527.577572877198" y1="301.80946673919357" x2="530.4304252438047" y2="281.3069977811791" stroke="#00cc00" stroke-width="0.5" opacity="0.5"/>
  <line x1="574.1433458326248" y1="685.8568650030011" x2="581.813347125655" y2="705.0834372446909" stroke="#00cc00" stroke-width="0.5" opacity="0.5"/>
  <path d="M 527.577572877198 301.80946673919357 C 547.3276966389377 494.26151358880384, 547.3276966389377 494.26151358880384, 574.1433458326248 685.8568650030011 C 554.3932220708851 493.4048181533908, 554.3932220708851 493.4048181533908, 527.577572877198 301.80946673919357 Z" fill="#00cc00" stroke="#00cc00" stroke-width="0.55" class="aspect-line fusus"/>
  <line x1="694.2900620811881" y1="547.8683797144637" x2="714.3890340206214" y2="552.8202810642358" stroke="#0000f7" stroke-width="0.5" opacity="0.5"/>
  <line x1="637.0363363970415" y1="354.18829777114297" x2="651.21250912777" y2="339.1043285750543" stroke="#0000f7" stroke-width="0.5" opacity="0.5"/>
  <path d="M 694.2900620811881 547.8683797144637 C 668.8850444160843 450.0759298109805, 668.8850444160843 450.0759298109805, 637.0363363970415 354.18829777114297 C 662.4413540621455 451.9807476746262, 662.4413540621455 451.9807476746262, 694.2900620811881 547.8683797144637 Z" fill="#0000f7" stroke="#0000f7" stroke-width="0.55" class="aspect-line fusus"/>
  <line x1="694.2900620811881" y1="547.8683797144637" x2="714.3890340206214" y2="552.8202810642358" stroke="#0000f7" stroke-width="0.5" opacity="0.5"/>
  <line x1="452.7138835116609" y1="305.56740708551143" x2="447.82221628872935" y2="285.45369057711605" stroke="#0000f7" stroke-width="0.5" opacity="0.5"/>
  <path d="M 694.2900620811881 547.8683797144637 C 575.2616575214897 424.96347241374, 575.2616575214897 424.96347241374, 452.7138835116609 305.56740708551143 C 571.7422880713593 428.47231438623515, 571.7422880713593 428.47231438623515, 694.2900620811881 547.8683797144637 Z" fill="#0000f7" stroke="#0000f7" stroke-width="0.55" class="aspect-line fusus"/>
  <line x1="694.2900620811881" y1="547.8683797144637" x2="714.3890340206214" y2="552.8202810642358" stroke="#0000f7" stroke-width="0.5" opacity="0.5"/>
  <line x1="539.6924645616614" y1="696.1237320087023" x2="543.7985815852815" y2="716.412393940637" stroke="#0000f7" stroke-width="0.5" opacity="0.5"/>
  <line x1="539.6924645616614" y1="696.1237320087023" x2="616.9912633214248" y2="621.996055861583" stroke="#0000f7" stroke-width="0.55" stroke-dasharray="4,3,12,4,18,5,24,6,30,6,36,6,48,6,60,6" class="aspect-line unilateral-dashed"/>
  <line x1="616.9912633214248" y1="621.996055861583" x2="694.2900620811881" y2="547.8683797144637" stroke="#0000f7" stroke-width="0.55" class="aspect-line unilateral-solid"/>
  <line x1="694.2900620811881" y1="547.8683797144637" x2="714.3890340206214" y2="552.8202810642358" stroke="#0000f7" stroke-width="0.5" opacity="0.5"/>
  <line x1="353.9585808094775" y1="636.7914978381993" x2="338.8508477897683" y2="650.9423424421509" stroke="#0000f7" stroke-width="0.5" opacity="0.5"/>
  <path d="M 694.2900620811881 547.8683797144637 C 523.6987853804447 590.7013035872642, 523.6987853804447 590.7013035872642, 353.9585808094775 636.7914978381993 C 524.5498575102209 593.958573965399, 524.5498575102209 593.958573965399, 694.2900620811881 547.8683797144637 Z" fill="#0000f7" stroke="#0000f7" stroke-width="0.55" class="aspect-line fusus"/>
  <line x1="588.2981725879977" y1="320.43540795128854" x2="597.4324663039974" y2="301.8597604979735" stroke="#00cc00" stroke-width="0.5" opacity="0.5"/>
  <line x1="520.5208892623745" y1="699.0449775901953" x2="522.6437398757236" y2="719.6358373409051" stroke="#00cc00" stroke-width="0.5" opacity="0.5"/>
  <line x1="520.5208892623745" y1="699.0449775901953" x2="554.4095309251861" y2="509.74019277074194" stroke="#00cc00" stroke-width="0.55" stroke-dasharray="4,3,12,4,18,5,24,6,30,6,36,6,48,6,60,6" class="aspect-line unilateral-dashed"/>
  <line x1="554.4095309251861" y1="509.74019277074194" x2="588.2981725879977" y2="320.43540795128854" stroke="#00cc00" stroke-width="0.55" class="aspect-line unilateral-solid"/>
  <line x1="588.2981725879977" y1="320.43540795128854" x2="597.4324663039974" y2="301.8597604979735" stroke="#0000f7" stroke-width="0.5" opacity="0.5"/>
  <line x1="617.1986199422415" y1="662.1866008141055" x2="629.3226151086803" y2="678.9645250362544" stroke="#0000f7" stroke-width="0.5" opacity="0.5"/>
  <path d="M 588.2981725879977 320.43540795128854 C 600.8407424223967 491.4723265685536, 600.8407424223967 491.4723265685536, 617.1986199422415 662.1866008141055 C 604.6560501078425 491.14968219684044, 604.6560501078425 491.14968219684044, 588.2981725879977 320.43540795128854 Z" fill="#0000f7" stroke="#0000f7" stroke-width="0.55" class="aspect-line fusus"/>
  <line x1="637.0363363970415" y1="354.18829777114297" x2="651.21250912777" y2="339.1043285750543" stroke="#0000f7" stroke-width="0.5" opacity="0.5"/>
  <line x1="452.7138835116609" y1="305.56740708551143" x2="447.82221628872935" y2="285.45369057711605" stroke="#0000f7" stroke-width="0.5" opacity="0.5"/>
  <path d="M 637.0363363970415 354.18829777114297 C 545.097035747025 329.03652875269506, 545.097035747025 329.03652875269506, 452.7138835116609 305.56740708551143 C 544.6531841616776 330.7191761039593, 544.6531841616776 330.7191761039593, 637.0363363970415 354.18829777114297 Z" fill="#0000f7" stroke="#0000f7" stroke-width="0.55" class="aspect-line fusus"/>
  <line x1="637.0363363970415" y1="354.18829777114297" x2="651.21250912777" y2="339.1043285750543" stroke="#0000f7" stroke-width="0.5" opacity="0.5"/>
  <line x1="574.1433458326248" y1="685.8568650030011" x2="581.813347125655" y2="705.0834372446909" stroke="#0000f7" stroke-width="0.5" opacity="0.5"/>
  <path d="M 637.0363363970415 354.18829777114297 C 605.2502460822172 519.9581853324194, 605.2502460822172 519.9581853324194, 574.1433458326248 685.8568650030011 C 605.9294361474492 520.0869774417247, 605.9294361474492 520.0869774417247, 637.0363363970415 354.18829777114297 Z" fill="#0000f7" stroke="#0000f7" stroke-width="0.55" class="aspect-line fusus"/>
  <line x1="637.0363363970415" y1="354.18829777114297" x2="651.21250912777" y2="339.1043285750543" stroke="#0000f7" stroke-width="0.5" opacity="0.5"/>
  <line x1="539.6924645616614" y1="696.1237320087023" x2="543.7985815852815" y2="716.412393940637" stroke="#0000f7" stroke-width="0.5" opacity="0.5"/>
  <line x1="539.6924645616614" y1="696.1237320087023" x2="588.3644004793514" y2="525.1560148899226" stroke="#0000f7" stroke-width="0.55" stroke-dasharray="4,3,12,4,18,5,24,6,30,6,36,6,48,6,60,6" class="aspect-line unilateral-dashed"/>
  <line x1="588.3644004793514" y1="525.1560148899226" x2="637.0363363970415" y2="354.18829777114297" stroke="#0000f7" stroke-width="0.55" class="aspect-line unilateral-solid"/>
  <line x1="637.0363363970415" y1="354.18829777114297" x2="651.21250912777" y2="339.1043285750543" stroke="#ee0000" stroke-width="0.5" opacity="0.5"/>
  <line x1="353.9585808094775" y1="636.7914978381993" x2="338.8508477897683" y2="650.9423424421509" stroke="#ee0000" stroke-width="0.5" opacity="0.5"/>
  <path d="M 637.0363363970415 354.18829777114297 C 494.465728582436 494.45643527276167, 494.465728582436 494.45643527276167, 353.9585808094775 636.7914978381993 C 496.52918862408296 496.52336033658065, 496.52918862408296 496.52336033658065, 637.0363363970415 354.18829777114297 Z" fill="#ee0000" stroke="#ee0000" stroke-width="0.55" class="aspect-line fusus"/>
  <line x1="697.6713108422493" y1="468.91844807756763" x2="718.1200671362751" y2="465.7031151200746" stroke="#ee0000" stroke-width="0.5" opacity="0.5"/>
  <line x1="452.7138835116609" y1="305.56740708551143" x2="447.82221628872935" y2="285.45369057711605" stroke="#ee0000" stroke-width="0.5" opacity="0.5"/>
  <line x1="697.6713108422493" y1="468.91844807756763" x2="575.1925971769551" y2="387.24292758153956" stroke="#ee0000" stroke-width="0.55" stroke-dasharray="4,3,12,4,18,5,24,6,30,6,36,6,48,6,60,6" class="aspect-line unilateral-dashed"/>
  <line x1="575.1925971769551" y1="387.24292758153956" x2="452.7138835116609" y2="305.56740708551143" stroke="#ee0000" stroke-width="0.55" class="aspect-line unilateral-solid"/>
  <line x1="697.6713108422493" y1="468.91844807756763" x2="718.1200671362751" y2="465.7031151200746" stroke="#ee0000" stroke-width="0.5" opacity="0.5"/>
  <line x1="520.5208892623745" y1="699.0449775901953" x2="522.6437398757236" y2="719.6358373409051" stroke="#ee0000" stroke-width="0.5" opacity="0.5"/>
  <line x1="520.5208892623745" y1="699.0449775901953" x2="609.0961000523118" y2="583.9817128338815" stroke="#ee0000" stroke-width="0.55" stroke-dasharray="4,3,12,4,18,5,24,6,30,6,36,6,48,6,60,6" class="aspect-line unilateral-dashed"/>
  <line x1="609.0961000523118" y1="583.9817128338815" x2="697.6713108422493" y2="468.91844807756763" stroke="#ee0000" stroke-width="0.55" class="aspect-line unilateral-solid"/>
  <line x1="697.6713108422493" y1="468.91844807756763" x2="718.1200671362751" y2="465.7031151200746" stroke="#ee0000" stroke-width="0.5" opacity="0.5"/>
  <line x1="539.6924645616614" y1="696.1237320087023" x2="543.7985815852815" y2="716.412393940637" stroke="#ee0000" stroke-width="0.5" opacity="0.5"/>
  <path d="M 697.6713108422493 468.91844807756763 C 617.8192016493399 581.9212529929727, 617.8192016493399 581.9212529929727, 539.6924645616614 696.1237320087023 C 619.5445737545708 583.1209270932974, 619.5445737545708 583.1209270932974, 697.6713108422493 468.91844807756763 Z" fill="#ee0000" stroke="#ee0000" stroke-width="0.55" class="aspect-line fusus"/>
  <line x1="697.6713108422493" y1="468.91844807756763" x2="718.1200671362751" y2="465.7031151200746" stroke="#0000f7" stroke-width="0.5" opacity="0.5"/>
  <line x1="617.1986199422415" y1="662.1866008141055" x2="629.3226151086803" y2="678.9645250362544" stroke="#0000f7" stroke-width="0.5" opacity="0.5"/>
  <line x1="617.1986199422415" y1="662.1866008141055" x2="657.4349653922454" y2="565.5525244458365" stroke="#0000f7" stroke-width="0.55" stroke-dasharray="4,3,12,4,18,5,24,6,30,6,36,6,48,6,60,6" class="aspect-line unilateral-dashed"/>
  <line x1="657.4349653922454" y1="565.5525244458365" x2="697.6713108422493" y2="468.91844807756763" stroke="#0000f7" stroke-width="0.55" class="aspect-line unilateral-solid"/>
  <line x1="452.7138835116609" y1="305.56740708551143" x2="447.82221628872935" y2="285.45369057711605" stroke="#ee0000" stroke-width="0.5" opacity="0.5"/>
  <line x1="539.6924645616614" y1="696.1237320087023" x2="543.7985815852815" y2="716.412393940637" stroke="#ee0000" stroke-width="0.5" opacity="0.5"/>
  <path d="M 452.7138835116609 305.56740708551143 C 493.8490461350354 501.369844002357, 493.8490461350354 501.369844002357, 539.6924645616614 696.1237320087023 C 498.5573019382869 500.32129509185665, 498.5573019382869 500.32129509185665, 452.7138835116609 305.56740708551143 Z" fill="#ee0000" stroke="#ee0000" stroke-width="0.55" class="aspect-line fusus"/>
  <line x1="452.7138835116609" y1="305.56740708551143" x2="447.82221628872935" y2="285.45369057711605" stroke="#0000f7" stroke-width="0.5" opacity="0.5"/>
  <line x1="353.9585808094775" y1="636.7914978381993" x2="338.8508477897683" y2="650.9423424421509" stroke="#0000f7" stroke-width="0.5" opacity="0.5"/>
  <path d="M 452.7138835116609 305.56740708551143 C 400.01930070551447 470.190500936192, 400.01930070551447 470.190500936192, 353.9585808094775 636.7914978381993 C 406.653163615624 472.16840398751873, 406.653163615624 472.16840398751873, 452.7138835116609 305.56740708551143 Z" fill="#0000f7" stroke="#0000f7" stroke-width="0.55" class="aspect-line fusus"/>
  <line x1="520.5208892623745" y1="699.0449775901953" x2="522.6437398757236" y2="719.6358373409051" stroke="#00cc00" stroke-width="0.5" opacity="0.5"/>
  <line x1="617.1986199422415" y1="662.1866008141055" x2="629.3226151086803" y2="678.9645250362544" stroke="#00cc00" stroke-width="0.5" opacity="0.5"/>
  <path d="M 520.5208892623745 699.0449775901953 C 570.2028818530785 684.1387466944894, 570.2028818530785 684.1387466944894, 617.1986199422415 662.1866008141055 C 567.5166273515374 677.0928317098113, 567.5166273515374 677.0928317098113, 520.5208892623745 699.0449775901953 Z" fill="#00cc00" stroke="#00cc00" stroke-width="0.55" class="aspect-line fusus"/>
  <line x1="539.6924645616614" y1="696.1237320087023" x2="543.7985815852815" y2="716.412393940637" stroke="#0000f7" stroke-width="0.5" opacity="0.5"/>
  <line x1="353.9585808094775" y1="636.7914978381993" x2="338.8508477897683" y2="650.9423424421509" stroke="#0000f7" stroke-width="0.5" opacity="0.5"/>
  <path d="M 539.6924645616614 696.1237320087023 C 447.0121876092042 665.8732782351111, 447.0121876092042 665.8732782351111, 353.9585808094775 636.7914978381993 C 446.63885776193473 667.0419516117905, 446.63885776193473 667.0419516117905, 539.6924645616614 696.1237320087023 Z" fill="#0000f7" stroke="#0000f7" stroke-width="0.55" class="aspect-line fusus"/>
  <line x1="527.577572877198" y1="301.80946673919357" x2="530.4304252438047" y2="281.3069977811791" stroke="#ff8000" stroke-width="0.85"/>
  <text x="535.8191463807285" y="242.58011197159624" fill="#ff8000" font-family="Astro-Nex" font-size="29.900000000000002" text-anchor="middle" dominant-baseline="central">d</text>
  <line x1="694.2900620811881" y1="547.8683797144637" x2="714.3890340206214" y2="552.8202810642358" stroke="#ff8000" stroke-width="0.85"/>
  <text x="752.3537587951064" y="562.1738725026942" fill="#ff8000" font-family="Astro-Nex" font-size="29.900000000000002" text-anchor="middle" dominant-baseline="central">f</text>
  <line x1="588.2981725879977" y1="320.43540795128854" x2="597.4324663039974" y2="301.8597604979735" stroke="#0000ff" stroke-width="0.85"/>
  <text x="614.686132211997" y="266.7724264194897" fill="#0000ff" font-family="Astro-Nex" font-size="29.900000000000002" text-anchor="middle" dominant-baseline="central">h</text>
  <line x1="637.0363363970415" y1="354.18829777114297" x2="651.21250912777" y2="339.1043285750543" stroke="#0000ff" stroke-width="0.85"/>
  <text x="677.9897242858126" y="310.6123867602202" fill="#0000ff" font-family="Astro-Nex" font-size="29.900000000000002" text-anchor="middle" dominant-baseline="central">j</text>
  <line x1="697.6713108422493" y1="468.91844807756763" x2="718.1200671362751" y2="465.7031151200746" stroke="#0000ff" stroke-width="0.85"/>
  <text x="756.7454956916571" y="459.62970842258784" fill="#0000ff" font-family="Astro-Nex" font-size="29.900000000000002" text-anchor="middle" dominant-baseline="central">k</text>
  <line x1="452.7138835116609" y1="305.56740708551143" x2="447.82221628872935" y2="285.45369057711605" stroke="#0000ff" stroke-width="0.85"/>
  <text x="438.5824004231918" y="247.46111495014705" fill="#0000ff" font-family="Astro-Nex" font-size="29.900000000000002" text-anchor="middle" dominant-baseline="central">l</text>
  <line x1="574.1433458326248" y1="685.8568650030011" x2="581.813347125655" y2="705.0834372446909" stroke="#ff8000" stroke-width="0.85"/>
  <text x="596.301127345823" y="741.4002959234383" fill="#ff8000" font-family="Astro-Nex" font-size="29.900000000000002" text-anchor="middle" dominant-baseline="central">g</text>
  <line x1="520.5208892623745" y1="699.0449775901953" x2="522.6437398757236" y2="719.6358373409051" stroke="#9900cc" stroke-width="0.85"/>
  <text x="524.7878189952061" y="740.4326056891222" fill="#9900cc" font-family="Astro-Nex" font-size="29.900000000000002" text-anchor="middle" dominant-baseline="central">z</text>
  <line x1="539.6924645616614" y1="696.1237320087023" x2="543.7985815852815" y2="716.412393940637" stroke="#9900cc" stroke-width="0.85"/>
  <text x="555.1634010362123" y="772.5669015766919" fill="#9900cc" font-family="Astro-Nex" font-size="29.900000000000002" text-anchor="middle" dominant-baseline="central">x</text>
  <line x1="353.9585808094775" y1="636.7914978381993" x2="338.8508477897683" y2="650.9423424421509" stroke="#009900" stroke-width="0.85"/>
  <text x="310.3140187525397" y="677.6717155829485" fill="#009900" font-family="Astro-Nex" font-size="29.900000000000002" text-anchor="middle" dominant-baseline="central">c</text>
  <line x1="617.1986199422415" y1="662.1866008141055" x2="629.3226151086803" y2="678.9645250362544" stroke="#9900cc" stroke-width="0.85"/>
  <text x="652.2234948675091" y="710.6561596780911" fill="#9900cc" font-family="Astro-Nex" font-size="29.900000000000002" text-anchor="middle" dominant-baseline="central">v</text>
  <circle cx="500" cy="500" r="29.900000000000002" fill="none" stroke="#ccc" stroke-width="0.5"/>
</svg>